<?xml version="1.0" encoding="UTF-8"?>
<svg id="Layer_6" xmlns="http://www.w3.org/2000/svg" version="1.1" viewBox="0 0 1920 1080">
  <!-- Generator: Adobe Illustrator 30.2.1, SVG Export Plug-In . SVG Version: 2.1.1 Build 1)  -->
  <defs>
    <style>
      .st0 {
        fill: #fff;
      }
    </style>
  </defs>
  <g>
    <path class="st0" d="M1370.16,372.26l-.32.08c-1.51-4.68-3.66-8.85-6.44-12.52-2.78-3.67-6.01-5.51-9.68-5.51h-6.56v55.38h-7.13v-55.38h-6.4c-3.67,0-6.9,1.82-9.68,5.46-2.78,3.64-4.93,7.8-6.44,12.48h-.32l3.4-19.08h46.1l3.48,19.08h-.01Z"/>
    <path class="st0" d="M1375.55,409.69c.49-21.37.49-40.21,0-56.52h7.21v27.57h34.11v-27.57h7.37c-.87,18.49-.87,37.33,0,56.52h-7.37v-27.73h-34.11v27.73h-7.21Z"/>
  </g>
  <g>
    <path class="st0" d="M1193.33,449.38l-1.07-22.08h20.58l-1.29,22.08c-.86,35.16-.86,70.11,0,104.42l1.29,22.08h-20.58l1.07-22.08c1.29-34.73,1.72-69.68,0-104.42Z"/>
    <path class="st0" d="M1318.96,577.81c-43.53,3.22-81.9-28.3-86.41-70.75-4.29-42.45,27.66-79.33,70.75-82.76,43.1-3.22,81.69,28.52,85.97,70.75,4.5,42.67-27.23,79.33-70.32,82.76h.01ZM1319.39,429.66c-32.8,2.57-67.11,35.38-71.61,75.04-4.5,39.66,23.37,69.04,52.1,66.68,33.66-2.57,70.54-36.45,75.26-76.33,4.29-39.67-27.02-67.97-55.75-65.39h0Z"/>
  </g>
</svg>