<?xml version="1.0" encoding="UTF-8"?>
<svg id="Layer_6" data-name="Layer 6" xmlns="http://www.w3.org/2000/svg" viewBox="0 0 1920 1080">
  <defs>
    <style>
      .cls-1 {
        fill: #ffd4f5;
      }

      .cls-2 {
        fill: #ffd4f5;
      }

      .cls-3 {
        fill: #ffb6f1;
      }

      .cls-4 {
        fill: #fff;
      }

      .cls-5 {
        fill: #ffdef6;
      }
    </style>
  </defs>
  <g>
    <g>
      <path class="cls-5" d="M1368.82,371.86l-.32.08c-1.51-4.68-3.66-8.85-6.44-12.52-2.78-3.67-6.01-5.5-9.68-5.5h-6.56v55.37h-7.13v-55.37h-6.4c-3.67,0-6.9,1.82-9.68,5.46-2.78,3.64-4.93,7.8-6.44,12.48h-.32l3.4-19.08h46.09l3.48,19.08Z"/>
      <path class="cls-5" d="M1374.21,409.28c.49-21.36.49-40.2,0-56.51h7.21v27.56h34.1v-27.56h7.37c-.86,18.48-.86,37.32,0,56.51h-7.37v-27.72h-34.1v27.72h-7.21Z"/>
    </g>
    <g>
      <path class="cls-3" d="M700.12,429.89h-30.44v69.88h60.02v3.21h-60.02v72.45h-19.08v-148.54h92.39l13.5,50.16-.86.21c-6.43-20.15-23.36-47.37-55.52-47.37Z"/>
      <path class="cls-1" d="M760.57,575.43h-22.72l66.23-134.18c-4.5-7.07-15.86-9.43-20.58-14.36h34.72l76.95,148.54h-23.36l-27.44-54.23h-75.02l-9.22,19.08c-8.14,15.86-7.72,27.01.43,35.15ZM770.86,517.99h72.02l-36.87-73.09-35.15,73.09Z"/>
      <path class="cls-2" d="M903.53,568.14l-6.86-57.45h1.29c5.14,51.44,36.23,65.16,66.23,64.73,30.44-.43,37.51-16.93,37.51-27.01,0-39.23-101.6-33.65-102.46-84.03-.21-11.57,7.93-38.58,54.45-39.87,28.72-.86,56.37,3.86,56.37,3.86l6,49.94h-1.07c-1.93-20.58-10.29-29.58-23.36-37.94-31.3-20.36-82.31-15-81.45,12.43,1.5,42.87,104.17,30.65,105.03,84.88.43,28.72-23.58,40.3-51.02,40.73-33.22.43-45.01-4.93-60.66-10.29Z"/>
      <path class="cls-5" d="M1034.92,426.89h19.08v72.45h90.24v-72.45h19.51c-2.36,51.02-2.14,100.32,0,148.54h-19.51v-72.88h-90.24v72.88h-19.08c1.07-48.01,1.5-97.1,0-148.54Z"/>
      <path class="cls-5" d="M1192.03,448.97l-1.07-22.08h20.58l-1.29,22.08c-.86,35.15-.86,70.09,0,104.39l1.29,22.08h-20.58l1.07-22.08c1.29-34.72,1.72-69.66,0-104.39Z"/>
      <path class="cls-5" d="M1317.64,577.36c-43.51,3.22-81.88-28.29-86.38-70.74-4.29-42.44,27.65-79.31,70.74-82.74,43.08-3.22,81.67,28.51,85.95,70.74,4.5,42.66-27.22,79.31-70.31,82.74ZM1318.07,429.25c-32.79,2.57-67.09,35.37-71.59,75.02-4.5,39.65,23.36,69.02,52.09,66.66,33.65-2.57,70.52-36.44,75.24-76.31,4.29-39.65-27.01-67.95-55.73-65.38Z"/>
      <path class="cls-5" d="M1488.7,530.92l-71.79-69.66v114.17h-3.1v-115.52c-3.68-7.35-12.19-12.38-18.19-18.38v-.19h29.03l104.88,103.14.97-103.14h3.68l-1.74,136.81c-12.77-17.61-30.77-31.54-43.73-47.22Z"/>
      <path class="cls-3" d="M840.34,683.8l-3.9-32.67h.73c2.93,29.25,20.6,37.06,37.67,36.81,17.31-.24,21.33-9.63,21.33-15.36,0-22.31-57.78-19.14-58.26-47.78-.12-6.58,4.51-21.94,30.96-22.67,16.33-.49,32.06,2.19,32.06,2.19l3.41,28.4h-.61c-1.1-11.7-5.85-16.82-13.29-21.57-17.8-11.58-46.81-8.53-46.32,7.07.85,24.38,59.24,17.43,59.73,48.27.24,16.33-13.41,22.92-29.01,23.16-18.89.24-25.6-2.8-34.5-5.85Z"/>
      <path class="cls-1" d="M912.38,603.47h10.85v41.2h51.32v-41.2h11.09c-1.34,29.01-1.22,57.05,0,84.47h-11.09v-41.44h-51.32v41.44h-10.85c.61-27.3.85-55.22,0-84.47Z"/>
      <path class="cls-2" d="M1041.33,689.04c-24.74,1.83-46.56-16.09-49.12-40.22-2.44-24.13,15.73-45.1,40.23-47.05,24.5-1.83,46.44,16.21,48.88,40.22,2.56,24.26-15.48,45.1-39.98,47.05ZM1041.58,604.81c-18.65,1.46-38.15,20.11-40.71,42.66-2.56,22.55,13.29,39.25,29.62,37.91,19.14-1.46,40.1-20.72,42.78-43.39,2.44-22.55-15.36-38.64-31.69-37.18Z"/>
      <path class="cls-5" d="M1142.37,642.11l-23.4,47.54-48.15-86.18h13.53l39.37,71.43,17.31-35.11-20.23-36.32h13.53l39.37,71.67,35.23-71.67h2.44l-42.42,86.18-26.57-47.54Z"/>
      <path class="cls-5" d="M1233.91,673.56c7.07-25.96,33.76-24.99,46.81-40.83,23.89-25.48-31.33-50.83-46.08-4.63v-19.38c14.14-12.43,49.98-10.36,59.36,7.68,0,0,7.44,9.87-.61,21.21-12.19,17.43-47.66,17.8-61.07,48.51h30.96c12.19,0,26.82-8.17,31.81-20.97h.61l-5.36,22.79h-58.75s1.22-10.36,2.32-14.38Z"/>
      <path class="cls-5" d="M1352.5,689.04c-24.74,1.83-46.56-16.09-49.12-40.22-2.44-24.13,15.72-45.1,40.22-47.05,24.5-1.83,46.44,16.21,48.88,40.22,2.56,24.26-15.48,45.1-39.98,47.05ZM1352.75,604.81c-18.65,1.46-38.15,20.11-40.71,42.66-2.56,22.55,13.29,39.25,29.62,37.91,19.14-1.46,40.1-20.72,42.78-43.39,2.44-22.55-15.36-38.64-31.69-37.18Z"/>
      <path class="cls-5" d="M1399.06,673.56c7.07-25.96,33.76-24.99,46.81-40.83,23.89-25.48-31.33-50.83-46.08-4.63v-19.38c14.14-12.43,49.98-10.36,59.36,7.68,0,0,7.44,9.87-.61,21.21-12.19,17.43-47.66,17.8-61.07,48.51h30.96c12.19,0,26.82-8.17,31.81-20.97h.61l-5.36,22.79h-58.75s1.22-10.36,2.32-14.38Z"/>
      <path class="cls-5" d="M1532.16,594.57l.24.98c-20.96,7.07-47.66,25.6-50.46,47.05,33.16-26.09,72.77,12.31,40.59,40.1-36.33,26.69-68.14-17.92-44.49-54.85,10.85-15.72,36.69-28.16,54.12-33.28ZM1493.89,682.33c14.38,12.8,28.4,1.1,29.13-18.28.97-25.48-19.14-34.5-41.32-19.99-1.95,13.65,2.56,29.62,12.19,38.27Z"/>
    </g>
  </g>
  <g>
    <g>
      <path class="cls-4" d="M1368.82,371.86l-.32.08c-1.51-4.68-3.66-8.85-6.44-12.52-2.78-3.67-6.01-5.5-9.68-5.5h-6.56v55.37h-7.13v-55.37h-6.4c-3.67,0-6.9,1.82-9.68,5.46-2.78,3.64-4.93,7.8-6.44,12.48h-.32l3.4-19.08h46.09l3.48,19.08Z"/>
      <path class="cls-4" d="M1374.21,409.28c.49-21.36.49-40.2,0-56.51h7.21v27.56h34.1v-27.56h7.37c-.86,18.48-.86,37.32,0,56.51h-7.37v-27.72h-34.1v27.72h-7.21Z"/>
    </g>
    <g>
      <path class="cls-4" d="M1192.03,448.96l-1.07-22.08h20.58l-1.29,22.08c-.86,35.15-.86,70.09,0,104.39l1.29,22.08h-20.58l1.07-22.08c1.29-34.73,1.72-69.66,0-104.39Z"/>
      <path class="cls-4" d="M1317.64,577.36c-43.51,3.22-81.88-28.29-86.38-70.74-4.29-42.44,27.65-79.31,70.74-82.74,43.08-3.22,81.67,28.51,85.95,70.74,4.5,42.65-27.22,79.31-70.31,82.74ZM1318.07,429.24c-32.79,2.57-67.09,35.37-71.59,75.02-4.5,39.65,23.36,69.02,52.09,66.66,33.65-2.57,70.52-36.44,75.24-76.31,4.29-39.66-27.01-67.95-55.73-65.38Z"/>
    </g>
  </g>
</svg>