<?xml version="1.0" encoding="UTF-8"?>
<svg id="Layer_6" data-name="Layer 6" xmlns="http://www.w3.org/2000/svg" viewBox="0 0 1920 1080">
  <defs>
    <style>
      .cls-1 {
        fill: #efb9e5;
      }
    </style>
  </defs>
  <path class="cls-1" d="M866.39,315.34c-5.02,0-7.06-3.47-7.06-8.49v-23.15h-3.41v-3.47h3.41v-8.04l4.9-1.67v9.71h5.08v3.47h-5.08v23.15c0,2.83.93,4.57,3.35,4.57.56,0,1.18-.06,1.74-.32v3.6c-.81.45-1.86.64-2.91.64Z"/>
  <path class="cls-1" d="M890,314.89v-25.15c0-3.99-1.61-6.5-5.7-6.5-1.92,0-3.84.64-5.33,1.8v29.84h-4.89v-50.49h4.89v17.43c1.67-1.22,4.03-2.12,6.32-2.12,6.2,0,9.6,3.79,9.6,10.1v25.08h-4.9Z"/>
  <path class="cls-1" d="M911.13,315.54c-6.88,0-11.03-3.54-11.03-10.42,0-8.04,5.7-11.38,15.62-12.86v-2.51c0-4.12-1.67-6.5-5.76-6.5-2.29,0-4.96.77-6.94,1.99l-1.24-3.22c2.48-1.54,5.51-2.44,8.49-2.44,6.69,0,10.16,3.67,10.16,10.61v22.9c-2.29,1.54-5.82,2.44-9.29,2.44ZM915.72,295.28c-7.25,1.09-10.97,3.54-10.97,9.78,0,4.31,2.29,7.2,6.45,7.2,1.55,0,3.35-.45,4.52-1.09v-15.89Z"/>
  <path class="cls-1" d="M942.68,314.89v-25.15c0-4.31-2.04-6.62-6.26-6.62-1.67,0-3.28.39-4.77,1.03v30.74h-4.89v-32.87c2.91-1.61,6.26-2.44,9.67-2.44,7.19,0,11.15,3.47,11.15,10.23v25.08h-4.9Z"/>
  <path class="cls-1" d="M970.69,314.89l-11.65-18.07h-.12v18.07h-4.83v-50.49h4.83v32.16h.12l11.34-16.34h5.14l-12.02,16.34,12.7,18.33h-5.52Z"/>
  <path class="cls-1" d="M999.32,328.72h-5.27l5.08-13.83-9.36-34.67h5.21l5.45,24.18c.5,2.19.74,4.95.74,5.27h.12c.06-.45.43-2.83,1.05-5.27l6.32-24.18h4.46l-13.82,48.49Z"/>
  <path class="cls-1" d="M1026.9,315.54c-8.06,0-11.22-8.23-11.22-17.94s3.16-18.01,11.22-18.01,11.22,8.3,11.22,18.01-3.16,17.94-11.22,17.94ZM1026.9,283.12c-5.08,0-6.26,7.4-6.26,14.34s1.18,14.34,6.26,14.34,6.26-7.4,6.26-14.34-1.18-14.34-6.26-14.34Z"/>
  <path class="cls-1" d="M1054.41,315.54c-7.37,0-10.84-3.47-10.84-11v-24.31h4.89v24.38c0,4.5,1.61,7.14,5.95,7.14,1.74,0,3.47-.32,4.83-1.03v-30.49h4.83v32.87c-2.54,1.61-6.2,2.44-9.67,2.44Z"/>
</svg>