<?xml version="1.0" encoding="UTF-8"?>
<svg id="Layer_7" data-name="Layer 7" xmlns="http://www.w3.org/2000/svg" viewBox="0 0 1920 1080">
  <defs>
    <style>
      .cls-1 {
        fill: #ffdef6;
      }
    </style>
  </defs>
  <path class="cls-1" d="M622.68,846.55l39.49-39.73-52.8-53.66-.51-46.5c.72-6.83,8.88-8.64,13.49-4.01l51.38,51.28,9.7-9.69-30.32-30.4c-5.04-6.35-1.8-13.03,6.18-13.74,22.55-1.99,47.98,1.56,70.84,0,6.26-.07,10.12,6.76,7.1,12.14l-22.1,21.65-10.24-10.94c.1-1.31,8.51-7.22,8.62-9.69h-38.21l40.32,40.63,52.71-52.52c5.76-3.49,11.49.1,12.22,6.57,1.06,9.43.92,31.74.02,41.32-.31,3.28-1.15,4.42-3.14,6.87-5.51,6.78-13.93,13.01-19.83,19.65l-10.84-10.82,20-20.73v-19.08l-40.05,40.27,52.7,53.15c.75,1.44,1.01,2.87,1.15,4.48.88,9.98.99,30.84,0,40.73-.65,6.59-5.86,9.74-11.91,6.82l-52.96-52.24-9.66,9.64,30.3,30.47c4.09,5.68,1.65,12.43-5.57,13.13-22.73,2.2-48.99-1.73-72.1,0-5.74-.13-9.54-5.7-7.33-11.13l22.31-22.02,10.38,10.37-8.73,9.61h38.21l-39.78-40.07-52,51.33c-4.67,3.72-11.81,2.21-12.85-4.05l.49-47.1,21.85-22.02,10.83,10.82-19.37,19.48v19.71ZM766.76,846.55v-19.08l-72.36-72.26-9.7,9.69,20.02,20.02-10.95,10.94-71.1-70.7v19.71l71.42,71.37h1.24l19.08-19.16,1.78-.52,50.56,49.99Z"/>
  <path class="cls-1" d="M967.86,758.94c.64.47-5.64,2.5-5.64,4.07v19.08h23.18v-18.46c0-1.61-3.84-4.09-5.64-3.45v-1.25h23.18c-1.06,1.9-3.55.99-5.03,2.8-.98,1.19-1.12,2.9-1.26,4.38-1.21,13.08.92,28.01.06,41.29l1.82,3.19,3.79,2.16h-22.55v-.62c1.4.66,5.64-2.82,5.64-3.45v-25.34h-23.18v25.34c0,1.6,3.82,4.08,5.63,3.45v.62s-23.18,0-23.18,0l4.42-2.15,1.79-3.85c-1.42-12.38,2.22-30.54-.22-42.21-.97-4.66-3.06-3.16-5.99-5.6h23.18Z"/>
  <path class="cls-1" d="M830.35,758.94l17.23,40.05,18.47-40.05h13.47c-.83,1.75-4.08,1.32-5.04,2.94-.98,1.65-.54,4.27-.59,6.13l3.9,40.53c.31.87,1.95,2.48,2.75,2.89,1.25.64,3.08.28,3.37,1.33h-22.55c.56-1.27,3.23-.99,4.22-2.04.61-.64.69-1.78.79-2.64l-3.14-39.12-20.35,44.43-19.43-44.44c-.84.03-1.4,14.25-1.57,15.96-.49,5.04-1.63,10.67-1.87,15.65-.14,2.9-.68,7.6,1.55,9.7l4.71,2.49h-14.41c.06-1.07,1.76-.7,2.74-1.33,2.57-1.63,3.44-3.77,3.99-6.65,2.21-11.56,1.12-25.01,3.35-36.75.48-2.57-2.05-6.01-4.2-7.12-1.63-.85-3.79-.23-4.62-1.95h17.23Z"/>
  <path class="cls-1" d="M1085.94,758.94c13.89,1.64,19.37,16.12,8.42,25.3l-5.59,2.85c2.06.4,3.46,2.77,4.64,4.44,3.23,4.62,8.7,17.36,12.66,19.89.98.63,2.68.26,2.74,1.33h-14.72c-3.91-3.56-11.98-24.26-15.79-25.52-.85-.28-1.81-.12-2.69-.13v19.71c0,.5,1.07,2.94,1.52,3.49l4.12,2.45h-22.55l4.4-2.18c1.27-1.57,1.71-3.01,1.9-4.99.86-8.92,1.01-31.31-.08-40.02-.12-.94-.81-3.28-1.38-3.94-1.21-1.4-3.99-.97-4.83-2.68,8.62.74,18.84-1,27.25,0ZM1075.61,760.2v24.72c5.99,3.14,12.3-1.51,13.5-7.79,1.88-9.86-2.24-18.86-13.5-16.92Z"/>
  <path class="cls-1" d="M1270.43,758.94c.3,2.32-3.04.73-4.08,2.49-2.34,3.94,6.79,15.55,8.78,19.39,1.02.02,11.05-14.98,11.34-16.86.16-1.03,0-1.71-.7-2.5-1.61-1.77-4.18-.3-4.05-2.53h15.03c-1.08,1.62-3.3,1.72-4.97,2.86-1.16.79-3.12,2.89-4.12,4.02-1.53,1.73-11.59,15.58-11.56,16.59,5.36,7.8,9.89,18.17,16,25.29.91,1.06,2.32,2.72,3.42,3.47,1.15.79,2.83.52,3.11,1.59h-25.06c.69-1.33,3.22-.73,4.07-2.5,2.41-5.03-8.28-16.89-10.03-21.91-.88-.2-1.04.54-1.46,1.05-1.86,2.21-11.17,15.13-11.71,17.09-.36,1.29-.6,2.5.02,3.78.85,1.77,3.38,1.17,4.07,2.5h-14.41l4.97-2.86c6.66-6.76,12.1-14.94,16.92-23.11l-13.48-22.16-6.53-5.68h24.43Z"/>
  <path class="cls-1" d="M1157.67,760.2c-9.26-.71-16.2,3.98-17.85,13.15l1.53-14.13,44.12-.18.94.94,1.96,13.36c-1.78.32-1.03-.42-1.41-1.37-.72-1.82-.98-3.79-2.06-5.48-3.32-5.16-9.51-6.55-15.32-6.29v48.49c0,1.36,3.37,3.88,5.01,3.45v.62s-22.55,0-22.55,0v-.62c1.82.64,5.64-1.85,5.64-3.45v-48.49Z"/>
  <path class="cls-1" d="M1048.04,758.94l1.88,14.39c-1.87.32-.99-.49-1.32-1.46-1.46-4.36-2.84-8.1-7.44-10.12-.74-.32-4.85-1.55-5.33-1.55h-9.71v47.87c0,6.32,12.76,3.73,16.43,2.02,2.76-1.29,4.82-3.75,6.04-6.48,1-2.24.89-4.95,2.58-6.49l-1.87,15.64h-40.09l4.09-1.86,1.51-2.87c-.88-13.69,1.3-29.06.07-42.54-.45-4.95-2.48-3.88-5.67-6.54h38.84Z"/>
  <path class="cls-1" d="M1234.72,758.94l1.87,14.39c-1.7-1.11-1.51-3.61-2.39-5.43-1.27-2.64-3.68-4.99-6.38-6.15-.78-.34-4.8-1.56-5.33-1.56h-9.71v48.49c0,6.03,18.94,3.05,20.94-2.23l4.11-9.34-1.87,15.64h-40.09c.62-1.08,2.28-.67,3.73-1.59.87-.55,1.72-1.42,1.89-2.49-1.01-14.04,1.39-30.03.05-43.82-.43-4.44-2.95-3.62-5.68-5.91h38.84Z"/>
  <path class="cls-1" d="M887.04,812.76c.92-1.37,2.86-1.77,4.1-3.1.85-.92,2.28-3.41,2.9-4.61,7.14-13.86,11.21-32.36,18.56-45.91.23-.42.96-1.74,1.37-1.44l19.52,48.4,2.08,3.55,4.09,3.11h-22.55c.09-1.09,1.69-.5,2.86-1.21.86-.52,2.06-2.47,2.13-3.52.05-.81-4.47-12.6-4.95-13.15-.72-.82-1.23-.8-2.2-.93-1.85-.25-13.65-.19-14.75.34-2.36,3.83-6.95,11.55-3.77,15.65l4.39,2.81h-13.78ZM900.2,793.36h16.29l-7.84-20.03c-1.27-.26-.88.49-1.22,1.25-2.71,6.09-4.83,12.56-7.23,18.78Z"/>
  <path class="cls-1" d="M1121.82,801.62c8.34-1.2,9.45,10.77,2.83,12.26-8.97,2.02-10.59-11.15-2.83-12.26Z"/>
  <path class="cls-1" d="M971.61,843.73c.6-1.93,9.77-.81,11.72.18,3.03,1.53,3.47,6.01.19,7.03v1.23c5.05.94,3.26,8.77-.95,8.77h-10.96v-17.21ZM973.49,850.93c4.25-.42,11.26,2.07,9.93-4.59-.9-2.62-7.63-1.42-9.93-1.67v6.26ZM973.49,859.06h9.71c2.6-1.25,1.17-6.26-.63-6.26h-9.08v6.26Z"/>
  <path class="cls-1" d="M910.54,842.79c.74.06,2.67.22,3.11.6l5.67,9.42c1.2.28.8-.38,1.11-.79,1.79-2.38,2.85-5.45,4.69-7.8.6-.76.73-1.7,2.02-1.42-1.78,6.43-8.44,10.86-6.89,18.15h-1.87c1.33-6.88-2.87-10.86-5.93-16.34l-7.23.07v16.27h-1.88v-16.27c-1.31-.09-6.89.49-6.88-.94l.93-.94c4.3.25,8.91-.34,13.16,0Z"/>
  <path class="cls-1" d="M834.42,861.57c1.6,1.75-3.24,3.25-4.63,3.12-2.72-.25-3.87-2.68-5.42-3.41-2.15-1.02-3.76-.34-6.26-2.51-4.81-4.17-3.74-12.36,2.09-14.84,12.78-5.45,19.84,12.47,6.71,17.33,1.68,3.67,7.23.01,7.5.32ZM822.35,844.82c-6.94,1.44-7.16,12.11-1.11,13.97,14.02,4.3,14.37-16.72,1.11-13.97Z"/>
  <path class="cls-1" d="M1095.03,857.18v-14.39l1.88.94v17.21c-1.46.28-1.92-.42-2.85-1.22-3.57-3.08-6.5-9.37-10.31-12.54v13.77h-1.88v-18.15c1.05-.23,1.27.33,1.87.95,3.96,4.08,6.76,9.9,11.29,13.44Z"/>
  <path class="cls-1" d="M1102.54,860.94v-17.21c4.09-2.25,13.47-.92,15.92,3.49,1.67,3,1.37,8.84-1.18,11.23-.38.35-4.15,2.49-4.4,2.49h-10.34ZM1104.42,859.06h9.08c2.06,0,4.54-5.06,4.48-7.1-.2-7.53-7.74-7.9-13.56-7.29v14.39Z"/>
  <path class="cls-1" d="M991.03,842.79c3.68,0,12.11-.74,13.5,3.72,1.07,3.43.37,7.18-3.48,8.18l3.75,6.24c-2.98.52-3.34-3.88-5.28-5.05s-4.48-.39-6.62-.59v5.64s-1.88,0-1.88,0v-18.15ZM992.91,853.43c13.62,2.84,14.13-11.28,0-8.76v8.76Z"/>
  <polygon class="cls-1" points="1294.86 844.67 1284.21 844.67 1284.21 850.93 1293.61 850.93 1293.61 852.8 1284.21 852.8 1284.21 859.06 1294.55 859.06 1295.49 860.94 1282.33 860.94 1282.33 842.79 1293.92 842.79 1294.86 844.67"/>
  <path class="cls-1" d="M1241.48,842.92c11.34-.89,14.06,16.35,2.27,17.96-13.8,1.88-15.02-16.96-2.27-17.96ZM1247.67,846.76c-.39-.41-2.4-1.66-2.89-1.8-12.26-3.36-14.9,15.81-.95,14.11,5.67-.69,7.71-8.26,3.84-12.31Z"/>
  <polygon class="cls-1" points="1076.23 842.79 1076.23 844.67 1066.21 844.67 1066.21 850.93 1075.61 850.93 1075.61 852.8 1066.21 852.8 1066.21 859.06 1076.86 859.06 1076.86 860.94 1064.33 860.94 1064.33 842.79 1076.23 842.79"/>
  <path class="cls-1" d="M1213.43,842.79c3.5-.28,1.15,7.41,1.88,8.14h11.28s.62-7.83.62-7.83l1.25.63v17.21h-1.88s0-8.13,0-8.13h-11.28v8.14s-1.88,0-1.88,0v-18.15Z"/>
  <path class="cls-1" d="M873.26,860.93c-1.92,1.78-2.81-4.05-4.17-4.28l-10.31.27c-.1,3.97-4.44,6.48-2.35,1.27.8-1.99,6.79-15.19,7.77-15.4s1.28.82,1.67,1.43c.82,1.26,8.06,16.08,7.39,16.7ZM865.11,845.92c-1.46-.32-1,.2-1.4.8-1.51,2.32-2.24,5.51-3.61,7.95h8.14s-3.14-8.75-3.14-8.75Z"/>
  <path class="cls-1" d="M967.85,860.93c-2.96.88-2.12-3.57-4.17-4.28-.92-.32-8.05-.32-9.33-.14-.27.04-.62-.08-.83.11.05.91-1.47,5.9-3.2,4.3-.74-.68,7.49-17.91,8.46-18.14.98-.23,1.29.83,1.68,1.44.84,1.29,8.07,16.09,7.39,16.7ZM959.7,845.92c-1.47-.32-1,.21-1.39.8-.6.91-3.46,7.49-2.98,7.95h7.52c.23-3.25-2.69-5.57-3.14-8.75Z"/>
  <path class="cls-1" d="M1151.41,844.67h-10.65l.59,5.98,8.81.28v1.87h-9.4v6.26h10.34l.94,1.88h-12.53c-.4-4.71.1-9.41.03-14.11-.02-1.59-1.27-3.03.29-4.04h10.65l.94,1.88Z"/>
  <path class="cls-1" d="M1167.07,844.06v1.86c-3.21-.9-6.79-2.48-9.71,0-2.79,7.43,9.81,3.3,10.39,9.7.48,5.17-5.02,5.82-8.99,5.18-1.28-.21-6.24-2.6-3.27-2.98.72-.09,2.01,1.08,3.15,1.22,2.65.32,7.23.77,7.24-2.79.02-4.91-11.84-1.59-10.68-9.34.8-5.29,8.27-3.93,11.87-2.85Z"/>
  <path class="cls-1" d="M1182.69,844.09l.04,1.83c-2.36-1.4-9.89-2.51-10,1.55-.15,5.21,11.29,2.34,11.29,8.78,0,4.59-6.13,5.27-9.6,4.55-.99-.21-4.46-1.72-3.27-2.99,2.79,2.04,13.86,2.39,10.37-2.85-2.01-3.02-10.35-1.6-10.69-6.89-.34-5.3,8.29-6.03,11.86-3.97Z"/>
  <path class="cls-1" d="M1309.86,844.09l.04,1.83c-.34.38-6.93-3.56-9.43.28-3.88,5.96,10.28,3.61,10.66,9.46.33,5.08-5.69,5.94-9.54,5.14-.99-.21-4.46-1.72-3.27-2.99,2.58,1.49,11.12,2.86,10.94-1.58-.17-4.29-10.89-2.49-11.25-8.16-.34-5.3,8.29-6.03,11.86-3.97Z"/>
  <path class="cls-1" d="M1046.12,844.09l.04,1.83c-.32.36-6.05-3.28-9.06.03-3.71,4.09,3.65,4.84,5.65,5.57,9.27,3.41,3.81,11.08-4.9,9.27-.99-.21-4.46-1.72-3.27-2.99,2.24,1.08,8.86,2.33,10.39.38,2.98-7.77-10.49-2.69-10.14-10.71.24-5.41,7.53-5.03,11.29-3.38Z"/>
  <polygon class="cls-1" points="949.69 844.67 939.04 844.67 939.04 851.55 948.44 851.55 948.44 853.43 939.04 853.43 939.04 860.94 937.16 860.94 937.16 843.73 938.1 842.79 948.75 842.79 949.69 844.67"/>
  <path class="cls-1" d="M839.43,842.79v10.95c0,1.1,1.45,4.3,2.66,4.86,4.13,1.9,8.13.52,8.62-4.23.34-3.31-1.52-10.73,1.88-11.57v13.45c0,.66-2.73,3.58-3.53,3.99-2.43,1.24-6.47,1.06-8.61-.63-.59-.47-2.28-2.95-2.28-3.36v-13.45h1.25Z"/>
  <path class="cls-1" d="M1277.95,859.05c-5.39,3.2-12.92,2.72-15.33-3.76-3.59-9.7,8.3-16.22,15.31-9.68-1.58,1.9-2.86-.69-5.3-.96-10.86-1.17-12.72,15.79.64,14.43,1.88-.19,3.8-2.34,4.68-.03Z"/>
  <path class="cls-1" d="M1209.04,859.05c-8.27,4.65-17.3.66-15.62-9.66,1.01-6.2,11.63-8.77,15.61-3.79-1.58,1.9-2.86-.69-5.3-.96-10.94-1.18-12.83,15.8.64,14.43,1.88-.19,3.8-2.34,4.68-.03Z"/>
  <path class="cls-1" d="M1031.75,859.05c-8.27,4.65-17.3.66-15.62-9.66,1.01-6.2,11.63-8.77,15.61-3.79-1.58,1.9-2.86-.69-5.3-.96-11.01-1.19-12.85,15.8.64,14.43,1.88-.19,3.8-2.34,4.68-.03Z"/>
  <polygon class="cls-1" points="878.27 842.79 878.27 859.06 888.3 859.06 888.3 860.94 876.39 860.94 876.39 843.73 878.27 842.79"/>
  <polygon class="cls-1" points="1125.72 859.06 1135.74 859.06 1135.74 860.94 1123.84 860.94 1123.84 842.79 1125.72 843.73 1125.72 859.06"/>
  <path class="cls-1" d="M1041.15,790.86l-2.8-6.27c-1.51-2.63-5.07-1.59-6.59-3.73,2.75-.32,5.96-.9,7.43-3.53.82-1.46.53-3.85,1.96-4.61v18.15Z"/>
  <path class="cls-1" d="M1227.83,790.23l-3.11-5.97c-1.51-2.57-4.87-1.36-6.29-3.41,3.02-.26,6.6-1.27,8-4.22.62-1.31.29-3.43,1.4-3.93v17.52Z"/>
  <polygon class="cls-1" points="1257.9 860.94 1256.02 860.94 1256.02 842.79 1256.95 842.8 1257.9 843.73 1257.9 860.94"/>
  <polygon class="cls-1" points="893.93 860.94 892.05 860.94 892.05 843.73 892.99 842.8 893.93 843.73 893.93 860.94"/>
  <polygon class="cls-1" points="1011.71 860.94 1009.83 860.94 1009.83 843.73 1010.77 842.8 1011.71 843.73 1011.71 860.94"/>
  <path class="cls-1" d="M1053.05,858.44c.42.44-.09,6.81-2.5,6.25,1.56-2.59-1.69-6.65,2.5-6.25Z"/>
</svg>