<?xml version="1.0" encoding="UTF-8"?>
<svg id="Layer_6" data-name="Layer 6" xmlns="http://www.w3.org/2000/svg" viewBox="0 0 1920 1080">
  <defs>
    <style>
      .cls-1 {
        fill: #ffd4f5;
      }

      .cls-2 {
        fill: #ffd4f5;
      }

      .cls-3 {
        fill: #ffb6f1;
      }

      .cls-4 {
        fill: #fff;
      }

      .cls-5 {
        fill: #ffdef6;
      }
    </style>
  </defs>
  <g>
    <g>
      <g>
        <path class="cls-5" d="M1369.2,372.08l-.32.08c-1.51-4.68-3.66-8.85-6.44-12.52-2.78-3.67-6.01-5.51-9.68-5.51h-6.56v55.38h-7.13v-55.38h-6.4c-3.67,0-6.9,1.82-9.68,5.46-2.78,3.64-4.93,7.8-6.44,12.48h-.32l3.4-19.08h46.1l3.48,19.08Z"/>
        <path class="cls-5" d="M1374.59,409.52c.49-21.37.49-40.21,0-56.52h7.21v27.57h34.11v-27.57h7.37c-.87,18.49-.87,37.33,0,56.52h-7.37v-27.73h-34.11v27.73h-7.21Z"/>
      </g>
      <g>
        <path class="cls-3" d="M700.33,430.12h-30.45v69.9h60.03v3.22h-60.03v72.47h-19.08v-148.58h92.41l13.51,50.17-.86.21c-6.43-20.15-23.37-47.38-55.53-47.38Z"/>
        <path class="cls-1" d="M760.79,575.7h-22.73l66.25-134.22c-4.5-7.08-15.87-9.43-20.58-14.36h34.73l76.97,148.58h-23.37l-27.44-54.24h-75.04l-9.22,19.08c-8.15,15.87-7.72,27.01.43,35.16ZM771.08,518.24h72.04l-36.88-73.11-35.16,73.11Z"/>
        <path class="cls-2" d="M903.79,568.41l-6.86-57.46h1.29c5.15,51.46,36.23,65.18,66.25,64.75,30.45-.43,37.52-16.94,37.52-27.01,0-39.24-101.63-33.66-102.49-84.05-.21-11.58,7.93-38.59,54.46-39.88,28.73-.86,56.39,3.86,56.39,3.86l6,49.96h-1.07c-1.93-20.58-10.29-29.59-23.37-37.95-31.3-20.37-82.33-15.01-81.47,12.44,1.5,42.88,104.2,30.66,105.06,84.9.43,28.73-23.58,40.31-51.03,40.74-33.23.43-45.02-4.93-60.68-10.29Z"/>
        <path class="cls-5" d="M1035.21,427.12h19.08v72.47h90.26v-72.47h19.51c-2.36,51.03-2.14,100.34,0,148.58h-19.51v-72.9h-90.26v72.9h-19.08c1.07-48.03,1.5-97.13,0-148.58Z"/>
        <path class="cls-5" d="M1192.37,449.21l-1.07-22.08h20.58l-1.29,22.08c-.86,35.16-.86,70.11,0,104.41l1.29,22.08h-20.58l1.07-22.08c1.29-34.73,1.72-69.68,0-104.41Z"/>
        <path class="cls-5" d="M1318,577.63c-43.53,3.22-81.9-28.3-86.41-70.75-4.29-42.45,27.66-79.33,70.75-82.76,43.1-3.22,81.69,28.52,85.98,70.75,4.5,42.67-27.23,79.33-70.32,82.76ZM1318.43,429.48c-32.8,2.57-67.11,35.38-71.61,75.04-4.5,39.66,23.37,69.04,52.1,66.68,33.66-2.57,70.54-36.45,75.26-76.33,4.29-39.66-27.02-67.97-55.75-65.39Z"/>
        <path class="cls-5" d="M1489.11,531.19l-71.81-69.68v114.2h-3.1v-115.55c-3.68-7.35-12.19-12.39-18.19-18.39v-.19h29.03l104.91,103.16.97-103.16h3.68l-1.74,136.84c-12.78-17.61-30.78-31.55-43.74-47.23Z"/>
        <path class="cls-3" d="M840.59,684.1l-3.9-32.68h.73c2.93,29.26,20.61,37.06,37.67,36.82,17.31-.24,21.34-9.63,21.34-15.36,0-22.31-57.79-19.14-58.28-47.79-.12-6.58,4.51-21.95,30.97-22.68,16.34-.49,32.07,2.19,32.07,2.19l3.41,28.41h-.61c-1.1-11.7-5.85-16.83-13.29-21.58-17.8-11.58-46.82-8.54-46.33,7.07.85,24.39,59.25,17.44,59.74,48.28.24,16.34-13.41,22.92-29.02,23.17-18.9.24-25.6-2.8-34.5-5.85Z"/>
        <path class="cls-1" d="M912.64,603.75h10.85v41.21h51.33v-41.21h11.1c-1.34,29.02-1.22,57.06,0,84.49h-11.1v-41.45h-51.33v41.45h-10.85c.61-27.31.85-55.23,0-84.49Z"/>
        <path class="cls-2" d="M1041.63,689.34c-24.75,1.83-46.58-16.09-49.14-40.24-2.44-24.14,15.73-45.11,40.24-47.06,24.51-1.83,46.45,16.22,48.89,40.23,2.56,24.26-15.48,45.11-39.99,47.06ZM1041.87,605.09c-18.65,1.46-38.16,20.12-40.72,42.67-2.56,22.56,13.29,39.26,29.63,37.92,19.14-1.46,40.11-20.73,42.8-43.41,2.44-22.56-15.36-38.65-31.7-37.19Z"/>
        <path class="cls-5" d="M1142.69,642.4l-23.41,47.55-48.16-86.2h13.53l39.38,71.45,17.31-35.11-20.24-36.33h13.53l39.38,71.69,35.24-71.69h2.44l-42.43,86.2-26.58-47.55Z"/>
        <path class="cls-5" d="M1234.25,673.86c7.07-25.97,33.77-24.99,46.82-40.84,23.9-25.48-31.34-50.84-46.09-4.63v-19.39c14.14-12.44,49.99-10.36,59.38,7.68,0,0,7.44,9.88-.61,21.21-12.19,17.44-47.67,17.8-61.08,48.53h30.97c12.19,0,26.82-8.17,31.82-20.97h.61l-5.36,22.8h-58.77s1.22-10.36,2.32-14.39Z"/>
        <path class="cls-5" d="M1352.88,689.34c-24.75,1.83-46.57-16.09-49.13-40.24-2.44-24.14,15.73-45.11,40.23-47.06,24.51-1.83,46.45,16.22,48.89,40.23,2.56,24.26-15.48,45.11-39.99,47.06ZM1353.12,605.09c-18.65,1.46-38.16,20.12-40.72,42.67-2.56,22.56,13.29,39.26,29.63,37.92,19.14-1.46,40.11-20.73,42.8-43.41,2.44-22.56-15.36-38.65-31.7-37.19Z"/>
        <path class="cls-5" d="M1399.45,673.86c7.07-25.97,33.77-24.99,46.82-40.84,23.9-25.48-31.33-50.84-46.09-4.63v-19.39c14.14-12.44,49.99-10.36,59.38,7.68,0,0,7.44,9.88-.61,21.21-12.19,17.44-47.67,17.8-61.08,48.53h30.97c12.19,0,26.82-8.17,31.82-20.97h.61l-5.36,22.8h-58.77s1.22-10.36,2.32-14.39Z"/>
        <path class="cls-5" d="M1532.58,594.85l.24.98c-20.97,7.07-47.67,25.6-50.48,47.06,33.16-26.09,72.79,12.31,40.6,40.11-36.33,26.7-68.16-17.92-44.5-54.87,10.85-15.73,36.7-28.16,54.13-33.29ZM1494.3,682.64c14.39,12.8,28.41,1.1,29.14-18.29.97-25.48-19.14-34.5-41.33-20-1.95,13.66,2.56,29.63,12.19,38.28Z"/>
      </g>
    </g>
    <g>
      <g>
        <path class="cls-4" d="M1370.16,372.26l-.32.08c-1.51-4.68-3.66-8.85-6.44-12.52-2.78-3.67-6.01-5.51-9.68-5.51h-6.56v55.38h-7.13v-55.38h-6.4c-3.67,0-6.9,1.82-9.68,5.46-2.78,3.64-4.93,7.8-6.44,12.48h-.32l3.4-19.08h46.1l3.48,19.08Z"/>
        <path class="cls-4" d="M1375.55,409.69c.49-21.37.49-40.21,0-56.52h7.21v27.57h34.11v-27.57h7.37c-.87,18.49-.87,37.33,0,56.52h-7.37v-27.73h-34.11v27.73h-7.21Z"/>
      </g>
      <g>
        <path class="cls-4" d="M1193.33,449.38l-1.07-22.08h20.58l-1.29,22.08c-.86,35.16-.86,70.11,0,104.42l1.29,22.08h-20.58l1.07-22.08c1.29-34.73,1.72-69.68,0-104.42Z"/>
        <path class="cls-4" d="M1318.96,577.81c-43.53,3.22-81.9-28.3-86.41-70.75-4.29-42.45,27.66-79.33,70.75-82.76,43.1-3.22,81.69,28.52,85.97,70.75,4.5,42.67-27.23,79.33-70.32,82.76ZM1319.39,429.66c-32.8,2.57-67.11,35.38-71.61,75.04-4.5,39.66,23.37,69.04,52.1,66.68,33.66-2.57,70.54-36.45,75.26-76.33,4.29-39.67-27.02-67.97-55.75-65.39Z"/>
      </g>
    </g>
  </g>
  <g>
    <g>
      <path class="cls-5" d="M653.62,263.11l-.71,4.08h4.39l-.4,2.3h-4.39l-1.23,6.94h-2.34l2.74-15.61h9.97l-.4,2.3h-7.63Z"/>
      <path class="cls-5" d="M669.39,268.64l-1.36,7.78h-2.25l.18-1.05c-.74.71-1.76,1.29-3.1,1.29-2.14,0-3.9-1.27-3.68-3.79.2-2.77,2.48-3.99,4.91-3.99,1.14,0,2.3.27,2.9.58l.16-.85c.04-.22.07-.49.07-.67,0-1-.67-1.43-2.14-1.43-1.09,0-2.1.29-2.99.74l-.65-1.83c1-.51,2.48-.96,3.9-.96,2.52,0,4.15.98,4.15,3.21,0,.31-.04.62-.09.96ZM663.97,270.78c-1.47,0-2.5.74-2.56,2.07-.07,1.05.58,1.83,2.03,1.83,1.18,0,2.25-.69,2.9-1.43l.33-1.9c-.62-.33-1.52-.58-2.7-.58Z"/>
      <path class="cls-5" d="M679.2,267.7c-.89-.69-2.01-1.2-3.3-1.2-.98,0-1.58.4-1.61,1.09-.04.67.22.98,2.16,1.87,2.05.94,3.23,1.78,3.06,3.72-.2,2.63-2.36,3.48-4.35,3.48s-3.68-.78-4.71-1.74l1.23-1.7c.98.83,2.14,1.41,3.68,1.41,1.14,0,1.87-.49,1.9-1.34.04-.67-.33-1.12-1.98-1.81-2.32-1-3.41-1.83-3.23-3.77.18-2.23,1.85-3.26,4.06-3.26,1.92,0,3.34.69,4.28,1.41l-1.18,1.83Z"/>
      <path class="cls-5" d="M691.86,269.59l-1.2,6.82h-2.3l1.14-6.53c.07-.4.11-.8.11-1.14,0-1.47-.54-2.16-1.9-2.16-1.43,0-2.54,1.12-2.94,3.32l-1.14,6.51h-2.3l2.65-15.05,2.52-1.2-.98,5.55c.65-.67,1.56-1.25,2.9-1.25,2.3,0,3.59,1.25,3.59,3.64,0,.45-.07.98-.16,1.49Z"/>
      <path class="cls-5" d="M695.94,276.42h-2.3l2.05-11.71h2.3l-2.05,11.71ZM697.33,263.19c-.8,0-1.45-.67-1.45-1.47s.65-1.49,1.45-1.49,1.43.67,1.43,1.49-.65,1.47-1.43,1.47Z"/>
      <path class="cls-5" d="M704.04,276.66c-3.03,0-4.95-2.39-4.68-5.73.27-4.01,3.03-6.47,5.82-6.47,3.1,0,5.02,2.41,4.73,5.75-.27,4.01-3.01,6.45-5.87,6.45ZM704.97,266.65c-1.81,0-3.17,1.83-3.3,4.37-.13,2.03.78,3.46,2.56,3.46s3.23-1.9,3.37-4.35c.13-2.03-.78-3.48-2.63-3.48Z"/>
      <path class="cls-5" d="M721.68,269.59l-1.2,6.82h-2.3l1.14-6.53c.07-.4.11-.8.11-1.14,0-1.47-.54-2.16-1.9-2.16-1.43,0-2.54,1.12-2.94,3.32l-1.14,6.51h-2.3l2.07-11.71h2.3l-.18,1c.65-.67,1.56-1.25,2.9-1.25,2.3,0,3.59,1.25,3.59,3.64,0,.45-.07.98-.16,1.49Z"/>
      <path class="cls-5" d="M733.74,276.42h-4.46l2.77-15.61h3.1c5,0,7.81,2.34,7.4,7.36-.45,6.09-4.97,8.25-8.81,8.25ZM735.03,263.08h-1.05l-1.96,11.06h1.98c3.1,0,5.91-1.96,6.13-6.04.25-3.37-1.38-5.02-5.11-5.02Z"/>
      <path class="cls-5" d="M753.54,271.36h-7.43c-.18,2.03.98,3.23,2.7,3.23.96,0,1.76-.38,2.63-.91l1,1.61c-1.2.91-2.45,1.38-3.95,1.38-3.03,0-4.88-2.25-4.59-5.71.29-4.01,2.72-6.49,5.69-6.49,2.81,0,4.24,2.01,4.24,4.73,0,.76-.11,1.52-.29,2.16ZM749.34,266.54c-1.56,0-2.52,1.25-2.94,2.97h5.24c.16-1.69-.56-2.97-2.3-2.97Z"/>
      <path class="cls-5" d="M763.46,267.7c-.89-.69-2.01-1.2-3.3-1.2-.98,0-1.58.4-1.61,1.09-.04.67.22.98,2.16,1.87,2.05.94,3.23,1.78,3.06,3.72-.2,2.63-2.36,3.48-4.35,3.48s-3.68-.78-4.71-1.74l1.23-1.7c.98.83,2.14,1.41,3.68,1.41,1.14,0,1.87-.49,1.9-1.34.04-.67-.33-1.12-1.98-1.81-2.32-1-3.41-1.83-3.23-3.77.18-2.23,1.85-3.26,4.06-3.26,1.92,0,3.34.69,4.28,1.41l-1.18,1.83Z"/>
      <path class="cls-5" d="M768.03,276.42h-2.3l2.05-11.71h2.3l-2.05,11.71ZM769.41,263.19c-.8,0-1.45-.67-1.45-1.47s.65-1.49,1.45-1.49,1.43.67,1.43,1.49-.65,1.47-1.43,1.47Z"/>
      <path class="cls-5" d="M771.46,271.78c0-4.5,2.48-7.31,5.33-7.31,1.43,0,2.48.58,3.14,1.36l.18-1.12h2.3l-1.78,10.24c-.65,3.77-2.05,5.6-6.56,5.78l-.49-1.83c3.35-.09,4.21-1.18,4.62-3.23l.04-.22c-.78.76-1.74,1.23-2.9,1.23-2.21,0-3.88-1.67-3.88-4.88ZM776.06,274.55c1.18,0,2.21-.91,2.61-1.32l.89-5.08c-.4-.65-1.49-1.56-2.68-1.56-1.98,0-3.08,2.5-3.08,5.06,0,1.87.85,2.9,2.25,2.9Z"/>
      <path class="cls-5" d="M793.76,269.59l-1.2,6.82h-2.3l1.14-6.53c.07-.4.11-.8.11-1.14,0-1.47-.54-2.16-1.9-2.16-1.43,0-2.54,1.12-2.94,3.32l-1.14,6.51h-2.3l2.07-11.71h2.3l-.18,1c.65-.67,1.56-1.25,2.9-1.25,2.3,0,3.59,1.25,3.59,3.64,0,.45-.07.98-.16,1.49Z"/>
      <path class="cls-5" d="M808.41,270.6h-3.72l-1.03,5.82h-2.3l2.77-15.61h5.31c3.12,0,5.4,1.61,5.13,4.68-.29,3.68-3.01,5.11-6.16,5.11ZM809.24,263.02h-3.21l-.94,5.37h3.52c2.1,0,3.43-1.05,3.55-2.85.09-1.65-.98-2.52-2.92-2.52Z"/>
      <path class="cls-5" d="M822.99,267.34c-.36-.29-.91-.56-1.65-.56-1.4,0-2.45.76-2.88,3.23l-1.12,6.4h-2.3l2.07-11.71h2.3l-.2,1.07c.67-.78,1.63-1.32,2.74-1.32.94,0,1.58.29,1.98.65l-.96,2.23Z"/>
      <path class="cls-5" d="M828.37,276.66c-3.03,0-4.95-2.39-4.68-5.73.27-4.01,3.03-6.47,5.82-6.47,3.1,0,5.02,2.41,4.73,5.75-.27,4.01-3.01,6.45-5.87,6.45ZM829.3,266.65c-1.81,0-3.17,1.83-3.3,4.37-.13,2.03.78,3.46,2.56,3.46s3.23-1.9,3.37-4.35c.13-2.03-.78-3.48-2.63-3.48Z"/>
      <path class="cls-5" d="M835.88,271.78c0-4.5,2.48-7.31,5.33-7.31,1.43,0,2.47.58,3.14,1.36l.18-1.12h2.3l-1.78,10.24c-.65,3.77-2.05,5.6-6.56,5.78l-.49-1.83c3.35-.09,4.21-1.18,4.62-3.23l.04-.22c-.78.76-1.74,1.23-2.9,1.23-2.21,0-3.88-1.67-3.88-4.88ZM840.47,274.55c1.18,0,2.21-.91,2.61-1.32l.89-5.08c-.4-.65-1.49-1.56-2.68-1.56-1.98,0-3.08,2.5-3.08,5.06,0,1.87.85,2.9,2.25,2.9Z"/>
      <path class="cls-5" d="M855.61,267.34c-.36-.29-.91-.56-1.65-.56-1.4,0-2.45.76-2.88,3.23l-1.12,6.4h-2.3l2.07-11.71h2.3l-.2,1.07c.67-.78,1.63-1.32,2.74-1.32.94,0,1.58.29,1.98.65l-.96,2.23Z"/>
      <path class="cls-5" d="M865.96,268.64l-1.36,7.78h-2.25l.18-1.05c-.74.71-1.76,1.29-3.1,1.29-2.14,0-3.9-1.27-3.68-3.79.2-2.77,2.48-3.99,4.91-3.99,1.14,0,2.3.27,2.9.58l.16-.85c.04-.22.07-.49.07-.67,0-1-.67-1.43-2.14-1.43-1.09,0-2.1.29-2.99.74l-.65-1.83c1-.51,2.47-.96,3.9-.96,2.52,0,4.15.98,4.15,3.21,0,.31-.04.62-.09.96ZM860.54,270.78c-1.47,0-2.5.74-2.56,2.07-.07,1.05.58,1.83,2.03,1.83,1.18,0,2.25-.69,2.9-1.43l.33-1.9c-.62-.33-1.52-.58-2.7-.58Z"/>
      <path class="cls-5" d="M884.33,269.66l-1.18,6.76h-2.3l1.16-6.53c.07-.42.13-.96.13-1.29,0-1.32-.56-1.96-1.83-1.96-1.4,0-2.41,1.12-2.79,3.28l-1.14,6.51h-2.3l1.14-6.53c.07-.42.16-.94.16-1.29,0-1.32-.58-2.01-1.85-2.01-1.4,0-2.39,1.18-2.77,3.32l-1.14,6.51h-2.3l2.05-11.71h2.3l-.18,1.05c.65-.71,1.47-1.29,2.79-1.29,1.54,0,2.45.62,2.99,1.76.91-.98,2.03-1.76,3.77-1.76,2.16,0,3.46,1.29,3.46,3.57,0,.47-.07,1.09-.18,1.63Z"/>
    </g>
    <g>
      <g>
        <polygon class="cls-5" points="813.08 341.93 825.94 341.93 825.94 339.42 813.08 339.42 813.08 333.09 826.71 333.09 826.71 330.57 809.96 330.57 809.96 351.36 826.7 351.36 826.7 348.85 813.08 348.85 813.08 341.93"/>
        <polygon class="cls-5" points="841.53 330.57 838.4 330.57 838.4 351.36 854.07 351.36 854.07 348.85 841.53 348.85 841.53 330.57"/>
        <rect class="cls-5" x="862.92" y="330.57" width="3.13" height="20.79"/>
        <polygon class="cls-5" points="881.29 341.93 894.25 341.93 894.25 339.42 881.29 339.42 881.29 333.09 895.02 333.09 895.02 330.57 878.17 330.57 878.17 351.36 895.04 351.36 895.04 348.85 881.29 348.85 881.29 341.93"/>
        <path class="cls-5" d="M935.94,341.35c-.68-.45-1.46-.8-2.32-1.07-.86-.26-1.74-.46-2.63-.65-.68-.14-1.52-.28-2.21-.41l-.72-.13c-1-.2-1.81-.41-2.41-.64-.67-.24-1.21-.57-1.61-.95-.39-.38-.59-.88-.59-1.5,0-.66.14-1.22.41-1.66.27-.44.64-.76,1.11-1.03.46-.26,1-.45,1.59-.57.57-.11,1.38-.17,2.05-.17,1.58,0,3.02.34,3.98.99.97.65,1.55,1.68,1.71,3.15v.05h2.97v-.07c-.05-1.14-.29-2.14-.72-2.97-.43-.83-1.03-1.52-1.78-2.06-.75-.54-1.62-.95-2.61-1.2-1.82-.46-4.66-.51-6.65-.02-.98.25-1.87.62-2.63,1.11-.77.49-1.39,1.13-1.86,1.9-.46.77-.7,1.69-.7,2.74,0,.96.21,1.76.62,2.39.41.64.97,1.16,1.66,1.56.68.39,1.46.72,2.32.96.87.24,1.87.44,2.74.62.49.1,1.1.21,1.61.3.42.08.93.17,1.32.25.85.18,1.62.4,2.3.68.67.27,1.21.63,1.61,1.06.39.43.59,1,.59,1.69,0,.74-.16,1.34-.49,1.82-.33.47-.76.83-1.29,1.11-.53.27-1.14.45-1.81.57-.65.11-1.52.17-2.22.17-.86,0-1.89-.11-2.64-.29-.79-.19-1.48-.49-2.06-.89-.58-.4-1.06-.87-1.43-1.49-.36-.61-.54-1.35-.54-2.21v-.06h-2.97v.06c0,1.26.25,2.37.74,3.28.5.92,1.18,1.69,2.03,2.28.85.59,1.85,1.04,2.97,1.33,1.09.28,2.5.43,3.79.43,1.07,0,2.31-.12,3.32-.33,1.04-.23,1.99-.59,2.83-1.08.84-.49,1.54-1.14,2.08-1.93.54-.79.81-1.75.81-2.85,0-1.03-.21-1.9-.62-2.58-.41-.68-.97-1.25-1.65-1.7"/>
        <path class="cls-5" d="M956.94,330.57h-3.39l-8.75,20.7-.04.09h3.2l2.51-6.18h9.38l2.43,6.15.02.04h3.45l-8.8-20.74-.02-.05ZM958.87,342.69h-7.39l3.73-9.45,3.66,9.45Z"/>
        <path class="cls-5" d="M983.73,330.57h-3.39l-8.74,20.7-.04.09h3.2l2.51-6.18h9.38l2.43,6.15.02.04h3.45l-8.8-20.74-.02-.05ZM985.65,342.69h-7.39l3.73-9.45,3.66,9.45Z"/>
        <path class="cls-5" d="M1017.3,342.09c-.72-.87-1.76-1.45-3.09-1.74,1.02-.39,1.82-.98,2.38-1.76.58-.81.88-1.78.88-2.89,0-1.05-.27-1.95-.78-2.67-.52-.72-1.15-1.29-1.89-1.69-.35-.2-.76-.35-1.23-.44-.48-.1-.99-.17-1.53-.22-.54-.05-1.1-.08-1.65-.09-.56,0-1.08-.02-1.56-.02h-8.36v20.79h11.06c1.11,0,2.11-.17,2.96-.51.85-.34,1.58-.8,2.16-1.35.58-.55,1.02-1.2,1.32-1.92.29-.72.45-1.47.45-2.22,0-1.28-.38-2.39-1.12-3.28M1003.59,341.9h6.9c.62,0,1.22.06,1.81.16.57.1,1.09.29,1.53.54.44.25.79.6,1.06,1.04.27.43.4.98.4,1.64,0,1.14-.37,2.03-1.09,2.67-.72.64-1.75.96-3.04.96h-7.56v-7.01ZM1013.25,338.65c-.72.53-1.94.81-3.61.81h-6.05v-6.44h6.05c.64,0,1.26.04,1.83.1.57.07,1.07.22,1.5.44.43.23.77.55,1.01.96.24.41.37.99.37,1.71,0,1.07-.36,1.88-1.09,2.42"/>
      </g>
      <path class="cls-5" d="M650.88,351.37h-1.69l1.5-8.59h1.69l-1.5,8.59ZM651.9,341.67c-.59,0-1.06-.49-1.06-1.08s.47-1.1,1.06-1.1,1.05.49,1.05,1.1-.47,1.08-1.05,1.08Z"/>
      <path class="cls-5" d="M660.83,346.36l-.88,5.01h-1.69l.83-4.79c.05-.29.08-.59.08-.83,0-1.08-.39-1.59-1.39-1.59-1.05,0-1.87.82-2.16,2.44l-.83,4.78h-1.69l1.52-8.59h1.68l-.13.74c.47-.49,1.15-.92,2.13-.92,1.68,0,2.63.92,2.63,2.67,0,.33-.05.72-.11,1.1Z"/>
      <path class="cls-5" d="M672.51,345.4c-.41-.64-.98-1.19-1.91-1.19-1.36,0-2.36,1.29-2.47,3.19-.11,1.55.57,2.55,1.91,2.55.69,0,1.28-.33,1.91-.92l.9,1.15c-.92.9-1.91,1.37-3.03,1.37-2.21,0-3.61-1.72-3.4-4.24.21-2.99,2.18-4.71,4.3-4.71,1.64,0,2.47.8,3.03,1.67l-1.24,1.13Z"/>
      <path class="cls-5" d="M677.74,351.55c-2.22,0-3.63-1.75-3.44-4.2.2-2.94,2.22-4.74,4.27-4.74,2.27,0,3.68,1.77,3.47,4.22-.2,2.95-2.21,4.73-4.3,4.73ZM678.43,344.2c-1.33,0-2.32,1.34-2.42,3.21-.1,1.49.57,2.53,1.88,2.53s2.37-1.39,2.47-3.19c.1-1.49-.57-2.55-1.93-2.55Z"/>
      <path class="cls-5" d="M683.06,351.37l1.95-11.04,1.85-.88-2.11,11.92h-1.68Z"/>
      <path class="cls-5" d="M687.07,351.37l1.95-11.04,1.85-.88-2.11,11.92h-1.68Z"/>
      <path class="cls-5" d="M698.52,345.66l-1,5.71h-1.65l.13-.77c-.54.52-1.29.95-2.27.95-1.57,0-2.86-.93-2.7-2.78.15-2.03,1.82-2.93,3.6-2.93.83,0,1.68.2,2.13.42l.11-.62c.03-.16.05-.36.05-.49,0-.74-.49-1.05-1.57-1.05-.8,0-1.54.21-2.19.54l-.47-1.34c.74-.38,1.82-.7,2.86-.7,1.85,0,3.04.72,3.04,2.36,0,.23-.03.46-.07.7ZM694.54,347.23c-1.08,0-1.83.54-1.88,1.52-.05.77.43,1.34,1.49,1.34.87,0,1.65-.51,2.13-1.05l.25-1.39c-.46-.24-1.11-.42-1.98-.42Z"/>
      <path class="cls-5" d="M701.33,350.55l-.13.82h-1.67l1.95-11.06,1.82-.87-.72,4.06c.57-.56,1.28-.9,2.13-.9,1.62,0,2.85,1.23,2.85,3.58,0,3.3-1.82,5.37-3.91,5.37-1.05,0-1.82-.43-2.31-1ZM704.18,344.15c-.87,0-1.62.67-1.91.96l-.65,3.73c.29.47,1.1,1.14,1.96,1.14,1.46,0,2.26-1.83,2.26-3.71,0-1.37-.62-2.13-1.65-2.13Z"/>
      <path class="cls-5" d="M712.16,351.55c-2.22,0-3.63-1.75-3.44-4.2.2-2.94,2.22-4.74,4.27-4.74,2.27,0,3.68,1.77,3.47,4.22-.2,2.95-2.21,4.73-4.3,4.73ZM712.85,344.2c-1.33,0-2.32,1.34-2.42,3.21-.1,1.49.57,2.53,1.88,2.53s2.37-1.39,2.47-3.19c.1-1.49-.57-2.55-1.93-2.55Z"/>
      <path class="cls-5" d="M723.22,344.71c-.26-.21-.67-.41-1.21-.41-1.03,0-1.8.56-2.11,2.37l-.82,4.69h-1.69l1.52-8.59h1.69l-.15.79c.49-.57,1.19-.97,2.01-.97.69,0,1.16.21,1.46.47l-.7,1.64Z"/>
      <path class="cls-5" d="M730.81,345.66l-1,5.71h-1.65l.13-.77c-.54.52-1.29.95-2.27.95-1.57,0-2.86-.93-2.7-2.78.15-2.03,1.82-2.93,3.6-2.93.83,0,1.69.2,2.13.42l.11-.62c.03-.16.05-.36.05-.49,0-.74-.49-1.05-1.57-1.05-.8,0-1.54.21-2.19.54l-.47-1.34c.74-.38,1.82-.7,2.86-.7,1.85,0,3.04.72,3.04,2.36,0,.23-.03.46-.07.7ZM726.84,347.23c-1.08,0-1.83.54-1.88,1.52-.05.77.43,1.34,1.49,1.34.87,0,1.65-.51,2.13-1.05l.25-1.39c-.46-.24-1.11-.42-1.98-.42Z"/>
      <path class="cls-5" d="M737.27,344.32h-2.03l-.8,4.6c-.03.16-.05.33-.05.46,0,.44.28.62.77.62.52,0,.85-.13,1.23-.38l-.49,1.6c-.43.23-.95.33-1.36.33-1.24,0-1.88-.64-1.88-1.72,0-.18.03-.38.07-.59l.87-4.92h-1.23l.28-1.54h1.23l.42-2.42,1.82-.92-.59,3.34h2.03l-.28,1.54Z"/>
      <path class="cls-5" d="M739.79,351.37h-1.68l1.5-8.59h1.68l-1.5,8.59ZM740.81,341.67c-.59,0-1.06-.49-1.06-1.08s.47-1.1,1.06-1.1,1.05.49,1.05,1.1-.47,1.08-1.05,1.08Z"/>
      <path class="cls-5" d="M745.73,351.55c-2.22,0-3.63-1.75-3.44-4.2.2-2.94,2.22-4.74,4.27-4.74,2.27,0,3.68,1.77,3.47,4.22-.2,2.95-2.21,4.73-4.3,4.73ZM746.42,344.2c-1.33,0-2.32,1.34-2.42,3.21-.1,1.49.57,2.53,1.88,2.53s2.37-1.39,2.47-3.19c.1-1.49-.57-2.55-1.93-2.55Z"/>
      <path class="cls-5" d="M758.67,346.36l-.88,5.01h-1.69l.83-4.79c.05-.29.08-.59.08-.83,0-1.08-.39-1.59-1.39-1.59-1.05,0-1.87.82-2.16,2.44l-.83,4.78h-1.69l1.52-8.59h1.68l-.13.74c.47-.49,1.15-.92,2.13-.92,1.68,0,2.63.92,2.63,2.67,0,.33-.05.72-.11,1.1Z"/>
      <path class="cls-5" d="M771.89,351.37h-1.54l-.41-4.56c-.03-.47-.07-1.26-.07-1.62-.11.36-.43,1.14-.62,1.62l-2.04,4.56h-1.54l-.77-8.59h1.7l.26,4.42c.02.47.05,1.23.05,1.59.13-.36.41-1.1.61-1.59l2.04-4.42h1.44l.43,4.42c.03.49.07,1.23.07,1.59.13-.36.41-1.11.59-1.59l1.88-4.42h1.73l-3.81,8.59Z"/>
      <path class="cls-5" d="M777.5,351.37h-1.68l1.5-8.59h1.68l-1.5,8.59ZM778.52,341.67c-.59,0-1.06-.49-1.06-1.08s.47-1.1,1.06-1.1,1.05.49,1.05,1.1-.47,1.08-1.05,1.08Z"/>
      <path class="cls-5" d="M785.19,344.32h-2.03l-.8,4.6c-.03.16-.05.33-.05.46,0,.44.28.62.77.62.52,0,.85-.13,1.23-.38l-.49,1.6c-.42.23-.95.33-1.36.33-1.24,0-1.88-.64-1.88-1.72,0-.18.03-.38.07-.59l.87-4.92h-1.23l.28-1.54h1.23l.43-2.42,1.82-.92-.59,3.34h2.03l-.28,1.54Z"/>
      <path class="cls-5" d="M793.65,346.36l-.88,5.01h-1.68l.83-4.79c.05-.29.08-.59.08-.83,0-1.08-.39-1.59-1.39-1.59-1.05,0-1.86.82-2.16,2.44l-.83,4.78h-1.68l1.95-11.04,1.85-.88-.72,4.07c.47-.49,1.14-.92,2.13-.92,1.69,0,2.63.92,2.63,2.67,0,.33-.05.72-.11,1.1Z"/>
    </g>
    <g>
      <path class="cls-5" d="M512.04,206.78h-32.79v-1.56c1.19-.08,3.87-.45,4.83-.74,1.26-.45,1.71-1.34,1.71-2.38v-25.65c0-1.12-.45-2.01-1.71-2.45-.89-.37-3.42-1.04-4.61-1.12v-1.56h20.15v1.56c-1.19.07-3.5.37-5.06.89-1.11.37-1.71,1.34-1.71,2.38v24.32c0,3.87,1.04,4.61,6.17,4.61,3.05,0,6.1-.37,7.21-1.48,1.41-1.41,4.46-6.84,5.2-9.37h1.71l-1.11,12.57Z"/>
      <path class="cls-5" d="M536.13,206.78v-1.56c2.08-.15,6.25-.74,6.25-1.93,0-.37-.07-.6-.22-1.04l-3.2-7.81h-12.72c-.89,2.3-1.49,3.79-2.01,5.35-.37,1.12-.59,2.08-.59,2.83,0,1.64,4.91,2.38,6.84,2.6v1.56h-16.8v-1.56c1.19-.07,3.79-.67,4.61-1.11,1.19-.67,2.23-2.08,2.97-3.79,3.94-8.85,8.4-19.7,12.49-29.52h2.97c5.5,13.23,10.93,26.25,12.86,31.08.37.89.97,1.71,2.08,2.23,1.04.52,3.35.97,4.39,1.11v1.56h-19.93ZM532.56,179.19l-5.43,13.16h10.85l-5.43-13.16Z"/>
      <path class="cls-5" d="M589.58,174.28c-1.49.82-1.64,3.72-1.64,6.84v15.17c0,8.55-8.7,11.53-14.12,11.53-9.74,0-15.02-5.13-15.02-10.56v-20.97c0-1.04-.6-1.86-1.71-2.38-.97-.45-3.42-.97-4.46-1.04v-1.56h19.63v1.56c-1.19.07-3.65.52-4.54.82-1.26.37-1.71,1.34-1.71,2.38v19.85c0,3.64.82,9,9.15,9s10.26-5.73,10.26-9v-14.5c0-3.64-.59-6.17-1.79-6.84-1.34-.82-4.83-1.56-6.32-1.71v-1.56h18.07v1.56c-1.19.07-4.68.74-5.8,1.41"/>
      <polygon class="cls-5" points="368.22 251.95 368.22 240.49 369.94 240.49 369.94 250.26 375.66 250.26 375.66 251.95 368.22 251.95"/>
      <path class="cls-5" d="M384.09,248.25h-5.68c.18,1.65,1.11,2.36,2.16,2.36.72,0,1.29-.26,1.87-.69l1,1.08c-.75.72-1.65,1.13-2.96,1.13-2.01,0-3.72-1.62-3.72-4.47s1.54-4.48,3.77-4.48c2.44,0,3.62,1.98,3.62,4.31,0,.31-.03.59-.05.77M380.41,244.7c-1.13,0-1.82.79-1.96,2.16h4c-.08-1.18-.64-2.16-2.03-2.16"/>
      <path class="cls-5" d="M389.91,252.13c-.87,0-1.69-.46-2.16-.98v.8h-1.67v-11.07l1.67-.87v4.16c.62-.57,1.34-1,2.24-1,1.85,0,3.31,1.34,3.31,4.62,0,2.95-1.6,4.34-3.39,4.34M389.68,244.73c-.8,0-1.51.54-1.95,1.1v3.62c.38.51,1.16,1.13,2.01,1.13,1.21,0,1.87-.92,1.87-2.73,0-2.16-.69-3.11-1.93-3.11"/>
      <path class="cls-5" d="M400.21,251.95v-.85c-.59.59-1.43,1.03-2.36,1.03-1.39,0-2.98-.79-2.98-2.9,0-1.92,1.47-2.78,3.42-2.78.8,0,1.44.11,1.92.33v-.64c0-.93-.57-1.46-1.62-1.46-.88,0-1.57.16-2.24.54l-.65-1.28c.82-.51,1.74-.77,2.95-.77,1.92,0,3.23.93,3.23,2.88v5.89h-1.65ZM400.21,248.28c-.46-.23-1.05-.38-1.97-.38-1.08,0-1.77.49-1.77,1.28,0,.85.54,1.42,1.65,1.42.9,0,1.69-.56,2.08-1.1v-1.23Z"/>
      <path class="cls-5" d="M409.51,251.95v-4.86c0-1.74-.65-2.36-1.77-2.36s-1.77.8-1.77,2.19v5.03h-1.69v-8.6h1.69v.82c.43-.62,1.28-1,2.16-1,2,0,3.06,1.31,3.06,3.85v4.93h-1.69Z"/>
      <path class="cls-5" d="M420.54,248.25h-5.68c.18,1.65,1.11,2.36,2.16,2.36.72,0,1.29-.26,1.87-.69l1,1.08c-.75.72-1.65,1.13-2.96,1.13-2.01,0-3.72-1.62-3.72-4.47s1.54-4.48,3.77-4.48c2.44,0,3.62,1.98,3.62,4.31,0,.31-.03.59-.05.77M416.86,244.7c-1.13,0-1.82.79-1.96,2.16h4c-.08-1.18-.64-2.16-2.03-2.16"/>
      <path class="cls-5" d="M425.31,252.13c-1.16,0-2.42-.46-3.29-1.1l.77-1.28c.8.56,1.7.85,2.5.85,1.06,0,1.57-.34,1.57-.95,0-.66-.75-.97-2-1.44-1.85-.72-2.52-1.34-2.52-2.7,0-1.54,1.21-2.34,2.93-2.34,1.08,0,2.15.39,2.92.95l-.74,1.29c-.7-.49-1.41-.74-2.23-.74s-1.18.33-1.18.79c0,.43.29.74,1.59,1.24,1.91.74,2.9,1.26,2.9,2.88,0,1.9-1.54,2.54-3.23,2.54"/>
      <path class="cls-5" d="M437.46,248.25h-5.68c.18,1.65,1.11,2.36,2.16,2.36.72,0,1.29-.26,1.87-.69l1,1.08c-.75.72-1.65,1.13-2.96,1.13-2.01,0-3.72-1.62-3.72-4.47s1.54-4.48,3.76-4.48c2.44,0,3.62,1.98,3.62,4.31,0,.31-.03.59-.05.77M433.78,244.7c-1.13,0-1.82.79-1.96,2.16h4c-.08-1.18-.64-2.16-2.03-2.16"/>
      <path class="cls-5" d="M451.84,251.95l-.96-2.72h-4.59l-.95,2.72h-1.78l4.13-11.46h1.82l4.18,11.46h-1.83ZM449.43,245.06c-.28-.82-.74-2.14-.87-2.63-.13.49-.54,1.8-.83,2.65l-.92,2.62h3.54l-.92-2.64Z"/>
      <path class="cls-5" d="M465.27,251.95v-4.86c0-1.74-.54-2.36-1.65-2.36s-1.65.8-1.65,2.19v5.03h-1.69v-4.86c0-1.74-.54-2.36-1.65-2.36s-1.65.8-1.65,2.19v5.03h-1.69v-8.6h1.69v.82c.43-.62,1.16-1,2.05-1,1.16,0,1.9.44,2.36,1.26.62-.77,1.29-1.26,2.64-1.26,2,0,2.95,1.31,2.95,3.85v4.93h-1.69Z"/>
      <path class="cls-5" d="M476.31,248.25h-5.68c.18,1.65,1.11,2.36,2.16,2.36.72,0,1.29-.26,1.87-.69l1,1.08c-.75.72-1.65,1.13-2.96,1.13-2.01,0-3.72-1.62-3.72-4.47s1.54-4.48,3.77-4.48c2.44,0,3.62,1.98,3.62,4.31,0,.31-.03.59-.05.77M472.62,244.7c-1.13,0-1.82.79-1.96,2.16h4c-.08-1.18-.64-2.16-2.03-2.16"/>
      <path class="cls-5" d="M483.12,245.14c-.36-.2-.74-.31-1.29-.31-1.06,0-1.69.75-1.69,2.21v4.91h-1.69v-8.6h1.69v.82c.39-.57,1.11-1,1.96-1,.69,0,1.11.13,1.46.36l-.44,1.6Z"/>
      <path class="cls-5" d="M486.1,242.24c-.61,0-1.1-.49-1.1-1.08s.49-1.1,1.1-1.1,1.08.49,1.08,1.1-.49,1.08-1.08,1.08M485.25,243.35h1.69v8.6h-1.69v-8.6Z"/>
      <path class="cls-5" d="M494.84,245.83c-.7-.72-1.33-1.05-2.1-1.05-1.23,0-2.01,1.1-2.01,2.85s.72,2.9,2.06,2.9c.8,0,1.28-.36,1.95-1.06l1.08,1.06c-.67.85-1.52,1.6-3.08,1.6-2.1,0-3.72-1.77-3.72-4.45,0-2.85,1.67-4.5,3.77-4.5,1.26,0,2.24.51,3.05,1.46l-1,1.2Z"/>
      <path class="cls-5" d="M502.25,251.95v-.85c-.59.59-1.43,1.03-2.36,1.03-1.39,0-2.98-.79-2.98-2.9,0-1.92,1.47-2.78,3.42-2.78.8,0,1.44.11,1.92.33v-.64c0-.93-.57-1.46-1.62-1.46-.88,0-1.57.16-2.24.54l-.66-1.28c.82-.51,1.74-.77,2.95-.77,1.92,0,3.23.93,3.23,2.88v5.89h-1.65ZM502.25,248.28c-.46-.23-1.05-.38-1.97-.38-1.08,0-1.77.49-1.77,1.28,0,.85.54,1.42,1.65,1.42.9,0,1.69-.56,2.08-1.1v-1.23Z"/>
      <path class="cls-5" d="M511.45,251.95v-4.86c0-1.74-.66-2.36-1.77-2.36s-1.77.8-1.77,2.19v5.03h-1.68v-8.6h1.68v.82c.43-.62,1.28-1,2.16-1,2,0,3.06,1.31,3.06,3.85v4.93h-1.69Z"/>
      <path class="cls-5" d="M524.45,252.13c-2.83,0-4.31-1.83-4.31-4.99v-6.65h1.72v6.6c0,2.16.9,3.32,2.62,3.32s2.65-1.11,2.65-3.21v-6.71h1.72v6.68c0,3.21-1.56,4.96-4.4,4.96"/>
      <path class="cls-5" d="M536.18,251.95v-4.86c0-1.74-.66-2.36-1.77-2.36s-1.77.8-1.77,2.19v5.03h-1.69v-8.6h1.69v.82c.43-.62,1.28-1,2.16-1,2,0,3.06,1.31,3.06,3.85v4.93h-1.69Z"/>
      <path class="cls-5" d="M540.89,242.24c-.6,0-1.1-.49-1.1-1.08s.49-1.1,1.1-1.1,1.08.49,1.08,1.1-.49,1.08-1.08,1.08M540.04,243.35h1.69v8.6h-1.69v-8.6Z"/>
      <path class="cls-5" d="M548.36,251.95h-1.69l-3.08-8.6h1.77l1.54,4.67c.28.84.52,1.64.64,2.11.1-.47.33-1.28.59-2.11l1.47-4.67h1.79l-3.03,8.6Z"/>
      <path class="cls-5" d="M559.81,248.25h-5.68c.18,1.65,1.11,2.36,2.16,2.36.72,0,1.29-.26,1.87-.69l1,1.08c-.75.72-1.65,1.13-2.96,1.13-2.01,0-3.72-1.62-3.72-4.47s1.54-4.48,3.77-4.48c2.44,0,3.62,1.98,3.62,4.31,0,.31-.03.59-.05.77M556.12,244.7c-1.13,0-1.82.79-1.96,2.16h4c-.08-1.18-.64-2.16-2.03-2.16"/>
      <path class="cls-5" d="M566.32,245.14c-.36-.2-.74-.31-1.29-.31-1.06,0-1.69.75-1.69,2.21v4.91h-1.69v-8.6h1.69v.82c.39-.57,1.11-1,1.96-1,.69,0,1.11.13,1.46.36l-.44,1.6Z"/>
      <path class="cls-5" d="M570.86,252.13c-1.16,0-2.42-.46-3.29-1.1l.77-1.28c.8.56,1.7.85,2.5.85,1.06,0,1.57-.34,1.57-.95,0-.66-.75-.97-2-1.44-1.85-.72-2.52-1.34-2.52-2.7,0-1.54,1.21-2.34,2.93-2.34,1.08,0,2.15.39,2.91.95l-.74,1.29c-.7-.49-1.41-.74-2.23-.74s-1.18.33-1.18.79c0,.43.29.74,1.59,1.24,1.92.74,2.9,1.26,2.9,2.88,0,1.9-1.54,2.54-3.23,2.54"/>
      <path class="cls-5" d="M577.18,242.24c-.61,0-1.1-.49-1.1-1.08s.49-1.1,1.1-1.1,1.08.49,1.08,1.1-.49,1.08-1.08,1.08M576.33,243.35h1.69v8.6h-1.69v-8.6Z"/>
      <path class="cls-5" d="M584.7,251.74c-.41.23-.98.39-1.65.39-1.2,0-1.93-.74-1.93-2.28v-4.96h-1.23v-1.54h1.23v-2.46l1.65-.88v3.34h2.13v1.54h-2.13v4.67c0,.8.26,1.03.88,1.03.44,0,.93-.16,1.25-.34l-.2,1.49Z"/>
      <path class="cls-5" d="M589.85,254.98h-1.78l1.24-3.19-3.16-8.43h1.85l1.41,4.21c.26.75.66,2.03.75,2.5.15-.51.51-1.74.77-2.47l1.46-4.24h1.79l-4.32,11.62Z"/>
      <path class="cls-5" d="M592.41,217.81c-.02-.18-.36-.32-.56-.02-.2.29-.36,1.24-.41,1.4-.05.16.05.29.11.5.07.21.21,1.92.45,4.11.25,2.19.43,5.83.45,6.84.02,1.02-.16,1.9-.2,2.15-.04.25.27.36.38.18.11-.18.88-1.76.86-3.5-.02-3.39-1.05-11.36-1.08-11.65"/>
      <path class="cls-5" d="M591.22,229.84c-.25.02-.97,0-2.71-.31-1.74-.32-3.48-.95-3.61-1.02-.14-.07,0-.23.07-.39.07-.16.25-.65.2-1.72-.05-1.06-.68-5.42-.7-5.53-.02-.11.02-.18.11-.13.09.05.2.07.34-.07.13-.14.27-.47.38-.72.11-.25.16-.43.11-.56-.05-.13-.25-.18-.47-.27-.23-.09-.47-.29-.61-.52-.13-.23-.24-.97-.2-1.22.05-.27-.29-.34-.45-.06-.16.27-.56,1.02-.63,1.2-.07.18.02.54.2,1.6.18,1.06.86,6.66.88,6.89.02.22-.07.36-.16.41-.09.05-.77.09-2.26.29-1.49.2-1.65.36-1.87.45-.22.09-.36.47-.45.77-.09.29-.2.59-.11.72.09.13.31.18.68.05.36-.14,1.22-.27,2.08-.14.86.14,2.57.61,2.96.83-.5.25-4.72,1.58-7.74,1.94-6.55.79-9.5-.02-11.92-1.26-2.41-1.24-2.37-3.77-2.48-5.71-.11-1.94-.27-4.13-.38-5.42-.11-1.29-.25-2.15-.38-2.3-.14-.16-.29-.07-.45.2-.16.27-.47.99-.59,1.2-.11.2-.34.5-.18.63.16.14.34-.09.5-.2.72,4.74.58,7.05.95,9.52.37,2.47,2.68,4.37,5.66,4.98,2.98.61,7.45.34,11.01-.31,3.55-.64,7.69-2.2,8.64-2.37.95-.17,1.39-.06,1.91.01.52.07,1.31.11,1.49.07.18-.11.52-.81.61-.93.09-.11.09-.27.05-.38-.05-.11-.18-.23-.43-.21"/>
      <path class="cls-5" d="M586.25,234.04c-.16-.11-.32-.02-.41.11-.09.13-.36.79-.45.97-.09.18-.09.25.02.36.11.11,1.79.93,1.9.97.11.05.2.05.27-.09.07-.13.52-.95.59-1.08.07-.13.07-.2-.07-.27-.13-.07-1.66-.84-1.85-.97"/>
      <path class="cls-5" d="M565.34,221.35c.27,0,1.35-.04,3.59-.59,2.24-.54,5.44-1.85,5.87-2.03.43-.18.59-.47.66-.7.07-.23.07-.54-.14-.5-.2.04-.81.38-2.57,1.06-1.76.68-5.71,1.9-6.64,2.1-.93.2-1.02.38-1.02.5s.25.16.25.16"/>
      <path class="cls-5" d="M534.61,221.81c3.66.07,9.73-2.69,9.96-2.8.09-.14.88-1.15.99-1.29.11-.13.11-.25-.11-.13-4.76,2.37-10.56,3.68-11.02,3.77-.22.05-.43.11-.43.23s-.02.2.61.23"/>
      <path class="cls-5" d="M526.15,220.29c.36.11.54-.07.68-.27.13-.2.31-.63.34-.75.01-.07.11.07.25.16.14.09,1.29.77,1.45.86.16.09.38.11.54-.16.16-.27.41-.77.47-.95.07-.18-.07-.34-.32-.47-.25-.14-1.31-.77-1.49-.88-.18-.11-.43.05-.52.18-.09.13-.34.81-.43.88-.2-.11-.99-.56-1.29-.7-.29-.13-.56-.3-.72-.25-.16.05-.39.45-.52.72-.14.27-.2.56-.04.72.16.16,1.24.79,1.6.9"/>
      <path class="cls-5" d="M517.45,218.28c-.05-.3-.27-.43-.45-.18-.18.25-.59,1.13-.65,1.33-.07.2-.05.47.02.61.07.13.13.65.22,1.51.09.86.5,4.65.63,6.23.14,1.58.29,4.29.27,4.7-.02.41.14.54.38.18.92-1.24.29-6.21.09-8.13-.2-1.92-.44-5.76-.52-6.25"/>
      <path class="cls-5" d="M513.66,220.63c.11-.27.29-.97.25-1.17-.16-.16-.34-.09-.61-.23-.27-.13-.41-.11-.47-.45-.07-.34-.16-.72-.27-.81-.11-.09-.36-.09-.47.16-.11.25-.36,1.06-.36,1.38s.18.52.23.81c.04.29.14,1.65.56,4,.43,2.35.95,5.6.83,6.19-.11.59-1.13,1.56-2.21.7-1.08-.86-1.18-1.78-1.42-3.84-.25-2.05-.43-5.4-.7-7.09-.27-1.69-.37-2.24-.68-2.49-.22-.18-.27.09-.36.32-.09.22-.36.99-.32,1.31.05.32.27,1.6.45,3.09.18,1.49.52,4.99.66,6.37.14,1.38,0,1.92-.68,2.37-.68.45-1.49.36-2.21-.2-.72-.56-1.11-1.04-1.08-1.94.02-.91-.29-.79-.48-.66-.18.14-.22.61-.31.86-.09.25-.23.72-.45.88-.23.16-3.16,1.71-9.39,1.69-6.23-.02-7.88-.7-9.01-2.39.07-.47.11-1.27.07-1.49-.05-.23-.29-.2-.45-.07-.16.13-.34.34-.54.81-.2.47-.77,1.83-1.6,2.3-.83.47-2.74.57-3.41-1.62-.68-2.21-.59-5.85-.7-7.3-.11-1.44-.37-4-.61-4.45-.18-.34-.38-.05-.52.11-.14.16-.43.91-.52,1.22-.09.32-.09.63.09.75.18.11.27.25.32.52.05.27.2,1.65.29,2.91.09,1.26.23,4.29.54,6.07.32,1.78.9,3.57,2.94,3.82,2.03.25,2.94-2.1,3.21-2.28.29.45.54,1.08,2.01,1.76,1.47.68,3.48,1.27,8.56,1.02,5.08-.25,8.33-1.13,9.05-2.35.27.43,1.47,2.05,2.82,2.17,1.35.11,2.44-.75,2.67-2.3.29.81,1.22,2.39,2.57,2.3,1.35-.09,2.44-1.49,2.39-3.28-.04-1.78-.72-6.3-1.17-8.94.16,0,.41-.27.52-.54"/>
      <path class="cls-5" d="M503.3,233.86c-.14-.16-.38-.07-.52.11-.14.18-.45.9-.52,1.13-.07.23.02.27.09.29.07.02.16,0,.27.07.11.06,1.13.65,1.29.79.16.14.22.11.3.02.15-.19.56-.93.63-1.06.07-.14.07-.2-.07-.32-.14-.11-1.33-.88-1.47-1.04"/>
      <path class="cls-5" d="M498.46,223.25c.36.02,1.06-.29,1.24-.45.18-.16.32-.41.52-1.15.2-.75.18-.84,0-1.38-.18-.54-1.11-1.04-1.33-1.13-.22-.09-.25-.09-.38,0-.13.09-.34.68-.39.86-.05.18,0,.25.14.32.99.47,1.33.99,1.44,1.4-.27.23-.84.36-1.08.3-.25-.07-.63-.43-.7-.63-.07-.21.02-.63.02-.77s-.16-.18-.29.13c-.14.32-.41,1.49-.34,1.76.07.27.79.72,1.15.75"/>
      <path class="cls-5" d="M483.47,223.97c.16.07.34.16.45.02.11-.14.29-.54.43-.81.14-.27.18-.41-.05-.63-.23-.23-1.39-.88-1.58-.99-.23-.14-.38-.16-.52.05-.13.2-.31.63-.41.95-.09.32-.02.38.11.52.14.14,1.4.84,1.56.9"/>
      <path class="cls-5" d="M474.01,223.9c.32.25.52.27.68.02.16-.25.36-.77.45-.92.09-.16.05-.27-.14-.36-.18-.09-1.22-.86-1.44-1.04-.11-.09-.25-.13-.34-.04-.09.09-.27.47-.39.77-.11.29-.22.43-.02.7.2.27.88.63,1.2.88"/>
      <path class="cls-5" d="M465.56,235.26c-.27-.16-1.13-.59-1.26-.72-.14-.13-.34-.27-.57.02-.23.29-.59,1-.68,1.2-.13-.09-.58-.47-.79-.56-.2-.09-.59-.29-.7-.41-.11-.11-.25-.36-.41-.32-.16.05-.7.74-.83,1.4.27.25,1.74,1.13,1.9,1.22.16.09.25.02.31-.09.07-.11.52-1.08.66-1.11.23.16,1.29.68,1.51.83.23.16.41.16.61-.09.2-.25.47-.72.54-.95.07-.23-.02-.27-.3-.43"/>
      <path class="cls-5" d="M460.89,225.48c.05-.2-.07-.29-.16-.22-.09.07-.68.97-.91,1.6-.22.63-.31.93-.27,1.13.05.2.56,1.04,1.08.99.52-.05.93-.68,1.29-1.15.11.23.38.65.9.61.52-.05.77-.14,1.06-.81.29-.68.38-1.02.34-1.35-.05-.34-.18-1-.23-1.18-.04-.18-.14-.11-.23.02-.09.14-.38.81-.36.99.02.18.2.74.18.88-.02.14-.61.59-1.22-.27-.04-.47.02-.97-.04-1.22-.07-.25-.23-.27-.3-.09-.07.18-.41.84-.36,1.02.04.18.11.43,0,.63-.11.2-.54.86-.97.57-.43-.29-.52-.61-.43-.79.09-.18.56-1.15.61-1.35"/>
      <path class="cls-5" d="M454.39,222.75c.2,0,.91-.16,2.1-.47,1.2-.32,3.05-.99,5.01-1.72,1.96-.72,3.23-1.24,3.41-1.33.18-.09.59-.56.68-.7.09-.13.13-.48,0-.52-.14-.05-.21-.02-.45.11-.25.13-3.41,1.47-6.32,2.57-2.92,1.11-3.98,1.54-4.27,1.65-.29.11-.61.43-.16.41"/>
      <path class="cls-5" d="M475.5,228.42c-.25.09-.43.7-.45,1.13-.02.43.18,1.04.16,1.24-.63.99-2.15-.38-2.37-.7-.22-.32-.06-1.04-.06-1.24s-.23-.38-.5-.32c-.27.07-.38.65-.5.99-.11.34-.18.59-1.13.9-2.08.75-5.03,1.2-9.17,1.29-4.13.09-7.07-.52-8.81-1.47-1.74-.95-1.9-2.3-2.19-4.31-.29-2.01-.27-2.35-.38-2.64-.11-.29-.38-.45-.59-.18-.2.27-.27,1.27-.2,1.65-2.51,1.22-2.87,3-2.91,3.32-.04.32,0,.95,1.22,1.08,1.22.13,1.85-.7,2.12-1.1.16,1.51.92,2.89,2.57,3.84,1.65.95,4.58,1.72,9.87,1.49,5.28-.23,6.89-.88,7.86-1.2.97-.32,1.49-.68,1.79-1.13.5.97,1.44,1.79,2.5,1.83,1.06.04,1.4-1.04,1.65-2.03.25-.99.15-1.67-.04-2.17-.11-.29-.18-.36-.43-.27M449.1,227.43c-.23.05-.92.09-1.11,0-.18-.09-.2-.3-.02-.45.18-.16.88-.5,1.06-.75.18-.25.34-.72.41-.7.07.27.16.9.16,1.22s-.27.63-.5.68"/>
      <path class="cls-5" d="M448.47,220.4c.18.13.31.16.41-.05.09-.2.36-.81.43-.9.07-.09.13-.13.18-.07.06.09,1.2.81,1.35.91.16.09.29.18.39.09.09-.09.58-.88.65-1.06.07-.18.02-.29-.16-.41-.18-.11-1.33-.74-1.51-.86-.18-.11-.29,0-.43.16-.14.16-.32.56-.39.72-.07.16-.23.16-.31.07-.09-.09-1.18-.79-1.38-.9-.2-.11-.43-.14-.54.09-.11.23-.32.75-.36.88-.04.14,0,.18.11.29.11.11,1.38.9,1.56,1.04"/>
      <path class="cls-5" d="M440.41,218.62c-.11-.63-.54-.27-.72.11-.18.39-.29.93-.29,1.04s.11.25.18.36c.06.11.29,2.6.54,4.38.25,1.78.36,3.23.54,5.26.18,2.03-.07,2.53-.07,2.82s.29.34.59-.25c.29-.59.47-2.24.5-2.98.02-.75-.38-3.75-.61-5.67-.23-1.92-.54-4.45-.66-5.08"/>
      <path class="cls-5" d="M430.91,218.96c.36.11.65.25.56.32-.09.07-.56.41-.72.54-.16.14-.18.36.29.29.22-.03.5-.25.61-.27.11-.02,1.56-.54,1.72-.63.16-.04.31-.11.41-.27.09-.16.27-.52.25-.68-.02-.16-.09-.23-.16-.23s-.52.2-.83.2-.77-.07-1.24-.29c-.47-.23-.68-.2-.72-.32-.05-.11.11-.25.27-.27.16-.02.45.02.59.07.13.04.23.04.34-.16.11-.2.34-.65.34-.83s-.11-.16-.27-.18c-.16-.02-.88-.02-1.24.3-.36.32-.56.77-.68,1.06-.11.3-.27.77-.23.86.05.09.36.38.72.5"/>
      <path class="cls-5" d="M427.74,227.63c-.34-.36-.54-.43-.63-.43s-.68.34-1.11.81c-.43.47-.75.88-1.17,1.83-.43.95-1.42,2.39-3.5,2.12-.95-.18-1.67-.99-1.85-1.99-.18-.99-.54-3.59-.7-4.31-.16-.72-.25-1.08-.41-1.31-.16-.23-.34-.36-.56.07-.23.43-.36.95-.36,1.15s0,.59-.13.79c-.14.2-.59.84-1.29.95-.7.11-.97-.16-1.22-.43-.25-.27-.48-.59-.68-.59s-.32.25-.34.41c-.02.16-.09.99-.02,1.17.07.18,1.15,1.56,1.29,1.81-.16.54-1.47,3.07-3.34,4.02-1.87.95-2.8.75-4.7.47-.45-.07-.5.16-.29.41.2.25,1.06.36,1.92.63.86.27,1.88.59,2.76.43.88-.16,2.23-1.11,3.27-2.78,1.04-1.67,1.2-2.82,1.17-3.34-.02-.27.04-.43.16-.43s.91-.18,1.36-.75c.45-.56.54-.86.61-1.31.11.41.25,1.17.34,1.76.09.59.23,2.64.86,3.59.63.95,1.83,1.72,3.23,1.31,1.4-.41,2.12-1.15,2.69-2.05.38.18,1.17.75,3.66.81.2-.38.41-.95.47-1.17.07-.23.07-.47-.13-1.13-.2-.65-.99-2.17-1.33-2.53M425.89,230.02c-.14-.16.11-.43.36-.65.25-.23.45-.2.59-.14.14.07.7.97.77,1.29-.45.07-1.58-.34-1.72-.5"/>
      <path class="cls-5" d="M419.66,235.42c-.2-.11-.66-.45-1.02-.68-.36-.23-.54-.34-.68-.34s-.38.36-.45.57c-.07.2-.22.41-.41.54-.31-.32-1.11-.7-1.26-.91-.16-.21-.31-.21-.59.05-.27.25-.5.86-.52,1.06-.02.2.11.29.29.36.18.07.68.47.97.7.29.23.41.23.61.09.2-.13.5-.63.56-.79.07-.16.22-.18.41-.09.18.09.88.65,1.04.75.16.09.29.29.45.22.34-.11.72-.88.81-1.08.09-.2-.02-.34-.23-.45"/>
      <path class="cls-5" d="M392.63,235.19c-.27-.13-1.08-.7-1.26-.88-.18-.18-.36-.25-.52,0-.16.25-.52.86-.65,1.06,0,0-.47-.32-.84-.57-.36-.25-.52-.5-.79-.59-.27-.09-.63.63-.77.93-.14.29-.14.43,0,.54.14.11.79.63,1.11.86.32.22.59.32.75.16.16-.16.59-1.06.63-1.13.05-.07.25.13.45.29.2.16,1.13.74,1.31.83.07,0,.59-.92.61-1.01.02-.09.16-.16.25-.2.09-.04,0-.16-.27-.29"/>
      <path class="cls-5" d="M387.28,227.45c.34.16.86.36,1.22-.09.36-.45.59-.65.59-.65.23.29.38.47.68.52.29.04.68-.07.9-.32.23-.25.59-1.42.52-1.81-.07-.38-.23-.92-.18-1.33.04-.25-.2-.27-.34-.03-.13.25-.32.91-.29,1.04.02.13.16,1.13.16,1.13,0,0-.34.21-.63.11-.29-.09-.38-.2-.41-.41-.02-.2-.09-1.2-.04-1.47.04-.27,0-.45-.11-.38-.11.07-.56.77-.56.9s.14,1.09.09,1.27-.27.54-.59.5c-.32-.04-.81-.2-.81-.66s.18-.92.18-1.22.02-.72-.13-.79c-.16-.07-.32.18-.41.47-.09.29-.16.57-.14.77.02.2-.11,1.24-.11,1.54s.09.75.43.9"/>
      <path class="cls-5" d="M379.78,222.19c2.26-.09,4.45-.38,7.36-1.33,2.91-.95,5.08-1.72,5.33-1.94.27-.36.56-.92.54-1.04-.02-.11-.16-.11-.27-.02-.11.09-3.41,1.45-6.73,2.37-3.23.9-6.19,1.58-6.48,1.67.09.16.25.29.25.29"/>
      <path class="cls-5" d="M407.75,231.41c.54-.64,1.05-1.93.75-3.12-.3-1.19-1.29-2.98-2.74-4.71-1.46-1.73-2.1-2.39-2.1-2.39.45-.18,5.19-2.1,10.73-3.34.13.07.25.09.45-.07.2-.16.47-1.06.47-1.29s-.13-.38-.31-.36c-.18.02-3.61.97-6.59,1.81-2.98.83-4.94,1.62-5.26,1.92-.32.29-.72.84-.77,1.56-.04.72.02,1.04.38,1.47.36.43.56.72.63.63.07-.09.11-.2.11-.29.07.11,1.22,1.13,2.37,2.78,1.15,1.65,1.96,3.21,1.83,3.59-.14.38-1.13,1.08-2.6.93-1.47-.16-1.92-.81-1.97-1.35-.04-.54.11-.97.02-1.11-.09-.14-.34-.23-.43-.09-.09.13-.34.79-.45,1.22-.11.43-.29.95-.54,1.08-.25.13-6.11,1.44-12.44,1.55-6.33.1-13.11-.41-15.24-2.54-1.25-1.19-1.22-1.9-1.46-3.18-.24-1.29-.44-3.05-.51-3.42-.07-.37-.24-.37-.37-.14-.14.24-.71,1.49-.44,1.96-.51.27-2.71,1.22-3.18,3.29.34.54,1.19.95,2.1.85.91-.1,1.15-.47,1.69-.91.1.91.68,2.98,3.02,4.03,2.34,1.05,7.32,2.03,15.28,1.59,7.96-.44,11.31-1.29,11.75-1.9.44-.61.58-1.25.58-1.25,0,0,.07,1.53,1.83,1.93,1.76.41,2.88-.07,3.42-.71M371.72,226.86c-.07.02-1.17.32-1.81,0-.18-.09-.11-.2.02-.31.14-.11.68-.45.88-.54.2-.09.41-.41.5-.61.09-.21.18-.21.2-.07.02.13.09,1.04.18,1.22.09.18.09.29.02.31"/>
      <path class="cls-5" d="M369.26,219.43c.11.07,1.11.74,1.33.88.23.14.36.16.52-.02.16-.18.47-.79.59-.93.29.13,1.13.72,1.45.88.32.16.45.23.5.11.05-.11.43-.88.56-1.04.14-.16.11-.32-.16-.45-.27-.13-1.38-.79-1.51-.88-.13-.09-.43.07-.52.23-.09.16-.29.65-.36.72-.07.07-.11.09-.27,0-.16-.09-1.13-.7-1.29-.84-.16-.13-.29-.27-.5-.09-.21.18-.63.93-.61,1.15.02.23.16.2.27.27"/>
      <path class="cls-5" d="M436.82,219.66c-.16-.07-.68-.39-.74-.57-.07-.18-.07-.41-.02-.61.04-.2-.07-.41-.18-.48-.11-.07-.27-.05-.38.2-.11.25-.45,1.15-.5,1.51-.05.36-.09.52.07.75.07.32.11.54.29,1.33.18.79.97,5.17.38,6.8-.22-.61-1.42-2.75-2.6-4.38-1.17-1.63-3.11-3.91-4.11-4.65-.99-.75-1.47-.95-1.78-.72-.32.23-.36,1.24-.09,2.1.27.86,1.35,1.4,1.83,1.6.47.2.9.5.97-.04.72.7,3.32,3.5,5.1,7.5-.72.93-1.87,2.14-2.21,2.42-.34.27-.59.45-.66.7-.06.25-.22.88-.25,1.13-.02.25.14.43.41.38.27-.04,3.84-.52,4.18-.59.34-.07.39-.47.43-.83.05-.36.02-1.04-.18-1.67-.2-.63-.34-.97-.54-1.51.23-.59.61-2.08.63-3.61.02-1.54-.27-4.06-.41-4.74.25-.09.38-.25.58-.68.2-.43.39-.99.23-1.18-.16-.18-.3-.09-.45-.16M435.89,232.53c-.07,0-1.59.24-1.68.24.1-.17,1-1.07,1.1-1.25.1-.19.2-.24.22-.19.02.07.41,1,.44,1.08.03.08-.02.12-.08.12"/>
      <path class="cls-5" d="M558.25,226.66c-.39-.18-.66.11-1.06.38-.41.27-1.22,1.29-1.94,2.15-.72.86-2.19,2.35-3.61,2.17-1.27-.18-1.85-.81-2.03-1.02.14-.18.54-.49.68-.99.14-.5.14-.84-.36-1.47-.5-.63-1.42-1.08-2.21-1.06-.79.02-1.42.5-1.76,1.2-.34.7-.47,1.33-.52,1.51-.04.18.14.25.34.16.2-.09.54-.5.68-.52.14-.02,1.02.36,1.08.7-.32.2-4.49,1.65-9.64,1.81-5.15.16-8.02-1.67-8.69-2.64-.68-.97-.97-2.67-1.04-4.02-.07-1.35-.34-2.33-.57-2.35-.22-.02-.34.2-.43.45-.09.25-.2.54-.27.81-.06.27,0,.36.09.45.09.09.27.36.18.45-.09.09-.88.45-1.49.86-.61.41-1.38,1.33-1.63,2.24-.25.9,0,.86.18.95.18.09,1.33.4,2.03.32.7-.09.86-.47,1.02-.79.16-.32.23-.54.27-.45.04.09.2.9.56,1.78.36.88,1.52,2.35,4.5,3,2.98.65,6.48.54,10.14-.18,3.66-.72,4.99-1.15,5.8-1.47.32.54,1.18,1.78,2.8,1.87,1.63.09,2.98-.93,4.26-2.55.21.2.43.57,1.02.77.59.2,1.85.72,2.73.65.27-.13.59-.99.61-1.22.02-.23-.66-3.34-1.72-3.95M527.48,227.18c-.16.09-.34.18-.52.27-.18.09-.99.07-1.24-.04-.25-.11-.11-.32.02-.41.14-.09.95-.5,1.17-.77.23-.27.36-.5.47-.56-.04.36-.04.56.02.86.07.29.09.56.07.65M558.23,229.93c-.23-.11-1.17-.32-1.51-.65-.18-.13-.14-.3-.05-.36.15-.12.75-.61.86-.61s.88.79,1.15,1.69c.04.14-.23.05-.45-.07"/>
      <path class="cls-5" d="M444.07,185.97c.28-.15.81.71.9.9.09.11.18.27.45.38.37,0,.76.16.96.61,0,0,1.39,1.04,1.77,1.33.38.29.46.67.34,1.14-.08.3-.13.44-.27.44.04.11.04.23-.2.41-.25.18-.68.21-.9.1-.22-.11-.65-.44-.99-.66-.34-.22-.6-.43-.81-.29-.29.19-.1,1.09,1.04,2.57,1.1,1.42,2.94,3.57,3.82,5.87-2.77.7-5.88.95-8.15.93,2.55-2.48,1.65-5.19,1.06-6.55-.59-1.35-1.37-3.31-.61-4.63.5-.86,1.4-.99,1.51-1.35-.11-.2-.13-1.08.09-1.2M440.77,198.66c.72-.6,1.09-1.55,1.19-2.4.4-3.41-3.47-6.52-.19-9.2.52-.42.86-.66,1.04-.44.18.23.04.48-.23.69-3.16,2.44.77,5.69.19,9.2-.14.85-.48,1.74-1.13,2.33-.61.56-1.69,1.18-1.92.86-.19-.26.6-.67,1.05-1.04M407.79,169.72c7.03-.3,12.25,1.33,14.63,2.08,0,0,.06-1.96.06-2.17s.18-.33.3-.33.27.09.27.33.15,2.47.15,2.47c6.73,2.32,12.16,7.3,13.03,8.24.25.26.36.57.24.69-.12.12-.25.04-.54-.21-7.54-6.37-17.05-10.77-28.15-10.47-.24,0-.57-.06-.57-.3s.27-.32.57-.33M409.39,171.82c10.21-.37,19.35,4.09,25.29,9.12,5.07,10.06-.84,15.4-5.33,18.79.5-5.83-15.79-2.81-23.85-1.17,16.71-10.93,8.85-22.67,3.88-26.74M391.22,191.11c.51,0,.93.41.93.93s-.41.93-.93.93-.92-.41-.92-.93.41-.93.92-.93M388.67,206.78l.83-1.07.24-.13c-2.68-1.96-4.18-5.41-3.93-8.37.01-.12.03-.22.11-.21.07.01.08.03.09.23.26,4.15,3.75,6.14,5.13,6.65l.56-.8c-3.63-1.4-5.39-4.29-5.4-6.4-.02-2.02.74-3.6,3.24-4.86-.12.9.39,1.49.93,1.79-1.22.92-3.03,3.43.13,5.78l3.55-7.77-1.23.6c.05-.6-.15-.95-.47-1.37l2.33-.56s1.55-3.36,1.53-3.37c-.39-.35-.45-.83-.32-1.22.14-.39.44-.62.77-.69-.21-.27-.15-.78-.08-1.02.08-.24.3-.41.48-.35.18.06.2.23.14.45-.06.23-.17.54.2.68.37.14.54-.2.63-.41.09-.21.29-.26.39-.22.11.03.27.18.17.53-.11.35-.35.63-.72.75.23.38.29.72.11,1.16-.18.44-.72.71-1.2.62l-1.33,2.9s1.85-.38,2.17-.45c.32-.07.52-.02.56.14.04.16-.09.32-.38.43-.29.11-2.01.75-2.87,1.04l-3.84,8.47c.77.43,1.2.61,2.17.81l2.3-3.48.63.05-2.28,3.54c1.22.32,3.77.23,6.26.23s22.4-.05,22.4-.05l-.02-3.32,1.49.05.11,3.27s9.01-.01,10.79-.02c4.97-.02,10.25.13,15.36-1.15.38,1.03.4,1.78.22,2.79-3.24,1.11-8.76,1.29-11.65,1.26-2.46-.02-38.43.12-40.26.11-1.38,0-4.18.21-6.37-.52l-.53.83c1.14.34,2.74.78,6.38.65,2.8-.02,35.16-.19,38.45-.21,7.82-.06,10.5-.08,13.73-1.35-.43,1.38-1.49,2.68-2.6,3.57h22.9c1.83-18,1.02-35.62,1.02-35.62,0,0-19.53-8.55-52.24-8.55h0c-32.7,0-52.24,8.55-52.24,8.55,0,0-.81,17.62,1.02,35.62h20.45Z"/>
      <path class="cls-5" d="M399.42,204.04l-.47.02-.07.03-5.94,5.72c-.36,0-.96.24-1.71,1.16-.12.12-.16.29.03.48.12.13.57.52.67.6.15.11.28.11.4,0,.6-.55,1.12-1.3,1.07-1.88l6.09-5.95s.04-.07.02-.11c-.02-.04-.06-.06-.1-.06"/>
      <path class="cls-5" d="M403.23,204.06l-.47.02-.07.03-5.94,5.72c-.36,0-.96.24-1.71,1.16-.12.12-.16.29.03.48.12.13.57.52.67.6.15.11.28.11.4,0,.6-.55,1.12-1.3,1.07-1.88l6.09-5.95s.04-.07.02-.11c-.02-.04-.06-.06-.1-.06"/>
      <path class="cls-5" d="M407.05,204.08l-.47.02-.07.03-5.94,5.72c-.36,0-.96.24-1.71,1.16-.12.12-.16.29.03.48.12.12.57.52.67.6.15.11.28.11.4,0,.6-.55,1.12-1.3,1.07-1.88l6.09-5.95s.04-.07.02-.11c-.02-.04-.06-.06-.1-.06"/>
      <path class="cls-5" d="M410.86,204.1l-.46.02-.07.03-5.94,5.72c-.36,0-.96.24-1.71,1.16-.12.12-.16.29.03.48.12.12.57.52.67.6.15.11.28.11.4,0,.6-.55,1.12-1.3,1.07-1.88l6.09-5.95s.04-.07.02-.11c-.02-.04-.06-.06-.1-.06"/>
      <path class="cls-5" d="M414.68,204.13l-.47.02-.07.03-5.94,5.72c-.36,0-.96.24-1.71,1.16-.12.12-.16.29.03.48.12.13.57.52.67.6.15.11.28.11.4,0,.6-.55,1.12-1.3,1.07-1.88l6.09-5.95s.04-.07.02-.11c-.02-.04-.05-.06-.1-.06"/>
      <path class="cls-5" d="M418.49,204.15l-.47.02-.07.03-5.94,5.72c-.36,0-.96.24-1.71,1.16-.12.12-.16.29.03.48.12.12.57.52.67.6.15.11.28.11.4,0,.6-.55,1.12-1.3,1.07-1.88l6.09-5.95s.04-.07.02-.11c-.02-.04-.05-.06-.1-.06"/>
      <path class="cls-5" d="M422.31,204.17l-.47.02-.07.03-5.94,5.72c-.36,0-.96.24-1.71,1.16-.12.12-.16.29.03.48.12.13.57.52.67.6.15.11.28.11.4,0,.6-.55,1.12-1.3,1.07-1.88l6.09-5.95s.04-.07.02-.11c-.02-.04-.06-.06-.1-.06"/>
      <path class="cls-5" d="M426.13,204.19l-.47.02-.07.03-5.94,5.72c-.36,0-.96.24-1.71,1.16-.12.12-.16.29.03.48.12.12.57.52.67.6.15.11.28.11.4,0,.6-.55,1.12-1.3,1.07-1.88l6.09-5.95s.04-.07.02-.11c-.02-.04-.05-.06-.1-.06"/>
      <path class="cls-5" d="M429.94,204.21l-.47.02-.07.03-5.94,5.72c-.36,0-.96.24-1.71,1.16-.12.12-.16.29.03.48.12.13.57.52.67.6.15.11.28.11.4,0,.6-.55,1.12-1.3,1.07-1.88l6.09-5.95s.04-.07.02-.11c-.02-.04-.06-.06-.1-.06"/>
      <path class="cls-5" d="M433.76,204.24l-.47.02-.07.03-5.94,5.72c-.36,0-.96.24-1.71,1.16-.12.12-.16.29.03.48.12.12.57.52.67.6.15.11.28.11.4,0,.6-.55,1.12-1.3,1.07-1.88l6.09-5.95s.04-.07.02-.11c-.02-.04-.06-.06-.1-.06"/>
      <path class="cls-5" d="M437.57,204.26l-.47.02-.07.03-5.94,5.72c-.36,0-.96.24-1.71,1.16-.12.12-.16.29.03.48.12.13.57.52.67.6.15.11.28.11.4,0,.6-.55,1.12-1.3,1.07-1.88l6.09-5.95s.04-.07.02-.11c-.02-.04-.06-.06-.1-.06"/>
    </g>
    <rect class="cls-5" x="621.5" y="164.95" width="1.33" height="92.94"/>
    <g>
      <path class="cls-5" d="M665.64,239.43l-1.78-5.05h-8.29l-1.78,5.05h-4.86l8.68-22.66h4.4l8.61,22.66h-4.99ZM660.85,225.96c-.45-1.33-.91-2.69-1.13-3.53-.23.84-.68,2.2-1.13,3.53l-1.46,4.11h5.18l-1.46-4.11Z"/>
      <path class="cls-5" d="M684.04,227.64c-.71-.65-1.59-1.1-2.59-1.1-1.75,0-2.88.74-2.88,3.69v9.19h-4.47v-17h4.47v1.13c.78-.81,1.91-1.49,3.5-1.49,1.46,0,2.56.58,3.14,1.2l-1.17,4.37Z"/>
      <path class="cls-5" d="M694.56,239.79c-4.44,0-7.96-3.63-7.96-8.84s3.43-8.87,8.16-8.87c3.24,0,5.31,1.59,6.73,3.76l-2.95,2.98c-1-1.42-2.07-2.43-3.88-2.43-2.14,0-3.53,1.78-3.53,4.57s1.39,4.53,3.53,4.53c1.75,0,2.85-.78,4.01-2.17l2.85,2.69c-1.65,2.2-3.59,3.79-6.96,3.79Z"/>
      <path class="cls-5" d="M715.12,239.43v-9.19c0-3.04-1.04-3.95-2.88-3.95s-2.91.91-2.91,3.85v9.29h-4.47v-21.37l4.47-2.23v7.74c.78-.81,2.2-1.49,3.98-1.49,4.34,0,6.28,2.98,6.28,7.77v9.58h-4.47Z"/>
      <path class="cls-5" d="M726.16,221.04c-1.39,0-2.56-1.17-2.56-2.56s1.17-2.56,2.56-2.56,2.56,1.17,2.56,2.56-1.17,2.56-2.56,2.56ZM723.93,239.43v-17h4.47v17h-4.47Z"/>
      <path class="cls-5" d="M742.38,238.75c-.74.58-2.07,1.04-3.46,1.04-2.75,0-4.53-2.14-4.53-5.12v-8.03h-2.85v-4.21h2.85v-4.37l4.47-2.23v6.6h4.08v4.21h-4.08v6.83c0,1.62.58,2.04,1.65,2.04.81,0,1.42-.36,2.53-1.3l-.65,4.53Z"/>
      <path class="cls-5" d="M760.32,232.37h-10.17c.16,2.33,1.88,3.21,3.5,3.21,1.23,0,2.27-.45,2.91-1.2l3.17,2.66c-1.36,1.75-3.82,2.75-6.09,2.75-4.89,0-8-3.46-8-8.84s3.27-8.87,7.58-8.87c4.53,0,7.16,4.01,7.16,8.87,0,.65-.03,1.1-.06,1.42ZM753,225.96c-1.62,0-2.62,1.33-2.78,3.04h5.83c-.13-1.52-1.04-3.04-3.04-3.04Z"/>
      <path class="cls-5" d="M771.04,239.79c-4.44,0-7.96-3.63-7.96-8.84s3.43-8.87,8.16-8.87c3.24,0,5.31,1.59,6.73,3.76l-2.95,2.98c-1-1.42-2.07-2.43-3.88-2.43-2.14,0-3.53,1.78-3.53,4.57s1.39,4.53,3.53,4.53c1.75,0,2.85-.78,4.01-2.17l2.85,2.69c-1.65,2.2-3.59,3.79-6.96,3.79Z"/>
      <path class="cls-5" d="M790.82,238.75c-.74.58-2.07,1.04-3.46,1.04-2.75,0-4.53-2.14-4.53-5.12v-8.03h-2.85v-4.21h2.85v-4.37l4.47-2.23v6.6h4.08v4.21h-4.08v6.83c0,1.62.58,2.04,1.65,2.04.81,0,1.42-.36,2.53-1.3l-.65,4.53Z"/>
      <path class="cls-5" d="M805.49,239.43v-1.13c-.78.81-2.2,1.49-3.98,1.49-4.34,0-6.28-2.98-6.28-7.77v-9.58h4.47v9.2c0,3.04,1.04,3.95,2.88,3.95s2.91-.91,2.91-3.85v-9.29h4.47v17h-4.47Z"/>
      <path class="cls-5" d="M824.24,227.64c-.71-.65-1.59-1.1-2.59-1.1-1.75,0-2.88.74-2.88,3.69v9.19h-4.47v-17h4.47v1.13c.78-.81,1.91-1.49,3.5-1.49,1.46,0,2.56.58,3.14,1.2l-1.17,4.37Z"/>
      <path class="cls-5" d="M841.46,232.37h-10.17c.16,2.33,1.88,3.21,3.5,3.21,1.23,0,2.27-.45,2.91-1.2l3.17,2.66c-1.36,1.75-3.82,2.75-6.09,2.75-4.89,0-8-3.46-8-8.84s3.27-8.87,7.58-8.87c4.53,0,7.16,4.01,7.16,8.87,0,.65-.03,1.1-.06,1.42ZM834.14,225.96c-1.62,0-2.62,1.33-2.78,3.04h5.83c-.13-1.52-1.04-3.04-3.04-3.04Z"/>
      <path class="cls-5" d="M863.84,239.43v-1.13c-.81.84-2.23,1.49-3.82,1.49-3.17,0-6.35-1.94-6.35-6.05,0-3.76,3.04-5.63,6.9-5.63,1.55,0,2.56.32,3.27.68v-.84c0-1.2-.81-2.17-2.43-2.17-2.04,0-3.11.29-4.66,1.13l-1.72-3.11c1.97-1.13,3.63-1.72,6.38-1.72,4.11,0,6.9,2.14,6.9,5.96v11.4h-4.47ZM863.84,232.31c-.78-.49-1.52-.71-3.11-.71-1.68,0-2.59.78-2.59,2.14,0,1.2.68,2.27,2.59,2.27,1.46,0,2.62-.75,3.11-1.55v-2.14Z"/>
      <path class="cls-5" d="M882.75,239.43v-9.19c0-3.04-1.04-3.95-2.88-3.95s-2.91.91-2.91,3.85v9.29h-4.47v-17h4.47v1.13c.78-.81,2.2-1.49,3.98-1.49,4.34,0,6.28,2.98,6.28,7.77v9.58h-4.47Z"/>
      <path class="cls-5" d="M900.72,239.43v-1.07c-.84.75-1.98,1.42-3.59,1.42-3.63,0-6.61-2.72-6.61-9.07,0-5.08,2.4-8.64,6.61-8.64,1.49,0,2.78.58,3.59,1.33v-5.34l4.47-2.23v23.6h-4.47ZM900.72,227.74c-.68-.94-1.72-1.46-3.01-1.46-1.72,0-2.65,1.49-2.65,4.34,0,3.5,1.17,4.95,2.91,4.95,1.39,0,2.1-.58,2.75-1.42v-6.41Z"/>
      <path class="cls-5" d="M926.49,239.43h-6.77v-22.66h7.09c6.48,0,11.27,3.04,11.27,11.33s-5.76,11.33-11.59,11.33ZM926.65,221.17h-2.4v13.86h2.23c4.76,0,6.93-2.78,6.93-6.93,0-4.63-1.98-6.93-6.77-6.93Z"/>
      <path class="cls-5" d="M955.66,232.37h-10.17c.16,2.33,1.88,3.21,3.5,3.21,1.23,0,2.27-.45,2.91-1.2l3.17,2.66c-1.36,1.75-3.82,2.75-6.09,2.75-4.89,0-8-3.46-8-8.84s3.27-8.87,7.58-8.87c4.53,0,7.16,4.01,7.16,8.87,0,.65-.03,1.1-.06,1.42ZM948.35,225.96c-1.62,0-2.62,1.33-2.78,3.04h5.83c-.13-1.52-1.04-3.04-3.04-3.04Z"/>
      <path class="cls-5" d="M965.47,239.79c-2.69,0-5.31-.78-7.12-1.98l1.49-3.4c1.81,1,3.72,1.55,5.89,1.55,1.75,0,2.27-.42,2.27-1.29,0-.78-.62-1.17-2.49-1.72-4.08-1.23-6.7-2.23-6.7-5.83s2.82-5.05,6.8-5.05c2.14,0,4.47.65,6.28,1.65l-1.42,3.53c-1.68-.91-3.53-1.36-4.95-1.36-1.81,0-2.3.36-2.3,1.1s.52,1,3.53,1.98c3.04,1,5.67,2.1,5.67,5.5,0,3.92-3.11,5.31-6.93,5.31Z"/>
      <path class="cls-5" d="M978.75,221.04c-1.39,0-2.56-1.17-2.56-2.56s1.17-2.56,2.56-2.56,2.56,1.17,2.56,2.56-1.17,2.56-2.56,2.56ZM976.52,239.43v-17h4.47v17h-4.47Z"/>
      <path class="cls-5" d="M991.96,245.68l-1.59-3.37c3.5-.49,4.44-1.33,4.44-3.95-.84.75-1.98,1.42-3.59,1.42-3.63,0-6.61-2.72-6.61-9.07,0-5.08,2.4-8.64,6.61-8.64,1.49,0,2.78.58,3.59,1.33v-.97h4.47v14.12c0,5.6-1.36,8.48-7.32,9.13ZM994.81,227.74c-.68-.94-1.72-1.46-3.01-1.46-1.72,0-2.65,1.49-2.65,4.34,0,3.5,1.17,4.95,2.91,4.95,1.39,0,2.1-.58,2.75-1.42v-6.41Z"/>
      <path class="cls-5" d="M1013.95,239.43v-9.19c0-3.04-1.04-3.95-2.88-3.95s-2.91.91-2.91,3.85v9.29h-4.47v-17h4.47v1.13c.78-.81,2.2-1.49,3.98-1.49,4.34,0,6.28,2.98,6.28,7.77v9.58h-4.47Z"/>
    </g>
    <g>
      <path class="cls-5" d="M657,207.11c-3.3,0-6.15-1.42-8.06-3.66l2.43-2.36c1.52,1.65,3.76,2.69,5.89,2.69,3.17,0,4.69-1.1,4.69-3.3,0-1.75-1.33-2.62-5.12-3.76-4.79-1.42-7.09-2.62-7.09-6.67s3.3-6.31,7.48-6.31c3.08,0,5.41,1.13,7.41,3.08l-2.4,2.43c-1.42-1.46-3.04-2.17-5.28-2.17-2.65,0-3.79,1.29-3.79,2.82s1.04,2.36,4.95,3.53c4.47,1.36,7.25,2.78,7.25,6.83s-2.59,6.86-8.39,6.86Z"/>
      <path class="cls-5" d="M680.34,194.65c-1.39-1.42-2.62-2.07-4.14-2.07-2.43,0-3.98,2.17-3.98,5.63s1.42,5.73,4.08,5.73c1.59,0,2.53-.71,3.85-2.1l2.14,2.1c-1.33,1.68-3.01,3.17-6.09,3.17-4.14,0-7.35-3.5-7.35-8.81,0-5.63,3.3-8.9,7.45-8.9,2.49,0,4.44,1,6.02,2.88l-1.97,2.36Z"/>
      <path class="cls-5" d="M696.89,206.76v-9.62c0-3.43-1.29-4.66-3.5-4.66s-3.5,1.59-3.5,4.34v9.94h-3.34v-21.85l3.34-1.75v8.22c.84-1.23,2.53-1.98,4.27-1.98,3.95,0,6.05,2.59,6.05,7.61v9.75h-3.34Z"/>
      <path class="cls-5" d="M711.69,207.11c-4.27,0-7.48-3.53-7.48-8.84,0-5.57,3.3-8.87,7.58-8.87s7.58,3.46,7.58,8.77c0,5.63-3.3,8.94-7.67,8.94ZM711.65,192.58c-2.53,0-4.08,2.23-4.08,5.6,0,3.72,1.72,5.76,4.24,5.76s4.18-2.56,4.18-5.67c0-3.46-1.65-5.7-4.34-5.7Z"/>
      <path class="cls-5" d="M730.14,207.11c-4.27,0-7.48-3.53-7.48-8.84,0-5.57,3.3-8.87,7.58-8.87s7.58,3.46,7.58,8.77c0,5.63-3.3,8.94-7.67,8.94ZM730.11,192.58c-2.53,0-4.08,2.23-4.08,5.6,0,3.72,1.72,5.76,4.24,5.76s4.18-2.56,4.18-5.67c0-3.46-1.65-5.7-4.34-5.7Z"/>
      <path class="cls-5" d="M742.09,206.76v-21.85l3.34-1.75v23.6h-3.34Z"/>
      <path class="cls-5" d="M765.92,207.11c-4.27,0-7.48-3.53-7.48-8.84,0-5.57,3.3-8.87,7.58-8.87s7.58,3.46,7.58,8.77c0,5.63-3.3,8.94-7.67,8.94ZM765.89,192.58c-2.53,0-4.08,2.23-4.08,5.6,0,3.72,1.72,5.76,4.24,5.76s4.18-2.56,4.18-5.67c0-3.46-1.65-5.7-4.34-5.7Z"/>
      <path class="cls-5" d="M783.24,186.16c-1.1,0-1.55.42-1.55,1.65v1.94h3.14v3.11h-3.14v13.89h-3.33v-13.89h-2.2v-3.11h2.2v-2.23c0-3.11,1.91-4.27,4.31-4.27.87,0,1.81.13,2.53.32v2.91c-.78-.23-1.36-.32-1.94-.32Z"/>
    </g>
  </g>
</svg>