<?xml version="1.0" encoding="UTF-8"?>
<svg id="Layer_7" data-name="Layer 7" xmlns="http://www.w3.org/2000/svg" viewBox="0 0 1920 1080">
  <defs>
    <style>
      .cls-1 {
        fill: #ffdef6;
      }
    </style>
  </defs>
  <g>
    <path class="cls-1" d="M1188.67,534.88c-1.35-.55-1.44-1.47-1.96-2.41l-12.48-22.25-10.03.06.06,38.52,7.28-.05.02-23.43c0-.47.88-1.44.98-1.13.07.22.25,1.02.51,1.48l12.88,23.03,4.6.09c1.86.04,3.67.09,5.42-.02l.12-18.65.19-19.94-7.78.04.19,24.67Z"/>
    <path class="cls-1" d="M1002.88,536.5l-.46,1.4c-.1.29-.99-.66-1.13-1.09l-8.76-26.5-8.53-.04,13.42,38.44,8.89-.02,13.65-38.48-8.18-.06-8.9,26.35Z"/>
    <path class="cls-1" d="M1100.93,542.22l-13.06-.05c-.21-3.46-.21-6.3.13-9.93l12.51-.08-.03-6.39-12.71-.07v-7.56c0-.54,1.25-1.11,1.71-1.11l11.52-.06-.03-6.84-21.21.1.06,38.47,21.09-.02.03-6.46Z"/>
    <polygon class="cls-1" points="925.81 510.18 904.43 510.21 904.51 517.56 904.61 548.68 925.72 548.73 925.77 542.28 912.29 542.13 912.34 532.2 924.92 532.19 924.86 525.77 912.35 525.72 912.35 517.09 925.74 517.02 925.81 510.18"/>
    <path class="cls-1" d="M1360.64,527.48l-7.32-3.29c-1.68-.76-2.55-2.5-2.38-4.19.45-4.51,7.54-3.78,10.48-3.09l2.31.54.45-7.25c-6.84-.51-14.92-1.51-19.56,4.5-2.21,2.86-2.41,6.81-1.5,10.4,2.04,8.04,15.51,6.67,15.43,13.04-.08,6.25-10.54,4.73-14.39,2.98l-1.23,7.15c7.98,2.86,21.56,1.69,23.79-8.33,1.25-5.63-.79-10.09-6.08-12.47Z"/>
    <path class="cls-1" d="M1257.07,510.24l.02,6.9,7.51-.03c.71,0,2.54.63,2.54,1.3l.04,30.25,7.38-.03.04-29.81c0-.66.87-1.63,1.45-1.64l8.49-.03-.05-7-27.42.1Z"/>
    <path class="cls-1" d="M1110.72,582.63l.07,11.08c0,.35-.57,1.16-.8,1.26l-7.02-12.42c-2.03-.2-3.92-.21-5.78,0l.03,21.28,4.36-.05.02-11.13c0-.29.47-.92.62-1.07.15-.15.47.56.61.82l6.51,11.51,5.73-.04.1-21.35c-1.61-.34-3.04-.33-4.45.1Z"/>
    <path class="cls-1" d="M1260.84,583.3c-5.85-3.16-13.1-.44-15.14,5.8-.96,2.96-.9,5.57-.18,8.41,1.14,4.51,4.71,6.74,9.6,6.61,6.56-.17,10.38-5.51,10.08-11.72-.18-3.66-.9-7.23-4.36-9.1ZM1259.95,596.36c-.8,2.57-3.15,3.87-5.16,3.72-2.53-.19-4.4-2.05-4.71-4.63-.27-2.16-.27-4.73.69-6.55,1.11-2.11,3.05-2.66,5.05-2.51,4.5.34,5.28,6.25,4.13,9.97Z"/>
    <path class="cls-1" d="M1165.88,584.26c-3.92-3.2-9.82-3.1-13.68.5-3.85,3.59-4.33,9.45-2.44,14.24,1.55,3.93,5.23,5.29,9.61,5.07,6.23-.33,9.89-5.78,9.55-11.64-.18-3.04-.47-6.07-3.03-8.16ZM1163.69,596.27c-.78,2.44-2.89,3.94-5.17,3.83-4.28-.2-5.88-5.39-4.77-9.4.52-1.86,1.7-3.61,3.34-4.09,1.95-.56,4.25-.25,5.49,1.42,1.76,2.36,2.03,5.33,1.1,8.24Z"/>
    <path class="cls-1" d="M1057.28,582.54l-.02,8.18-8.43-.05.06-7.98c-1.16-.4-2.83-.44-4.55-.21v21.3s4.37.05,4.37.05l.22-8.2c.04-1.47,7.25-1.08,8.33-.27l.12,8.58,4.45-.13.03-21.4c-1.67-.15-3.21-.1-4.59.13Z"/>
    <path class="cls-1" d="M1311.84,592.57c-.04,2.43.06,4.19-.24,6.49-.24,1.82-6.45,1.74-8.3-2.79-1.34-3.29-.39-7.83,3.26-9.38,2.67-1.13,6-.4,8.61.38l1.07-4.06c-4.6-1.88-9.9-1.72-14.03,1.14-5.21,3.62-5.26,13.53-1.24,17.16,3.7,3.34,10.99,3.07,15.36,1.16l-.02-10.17-4.46.06Z"/>
    <path class="cls-1" d="M954.14,599.85c-.08-2.01-.08-3.35.04-5.08l6.63-.16c.07-1.37.04-2.84-.08-3.75l-6.51-.11c-.27-1.34-.24-3.13.15-4.24l6.95-.04-.04-4.21-11.72.12.04,21.53,11.6-.04c.25-1.45.22-3.14-.33-4h-6.72Z"/>
    <path class="cls-1" d="M1003.21,586.8c1.83-.66,3.96-.25,6.17.17l1.03-3.84c-3.31-1.43-6.47-1.28-9.65,0-4.34,1.74-5.97,6.13-5.82,10.63.1,3,.37,5.61,2.44,7.67,3.19,3.16,9.18,3.36,13,1.42-.06-1.14-.43-2.7-.93-3.51-2.71.44-5.18,1.16-7.41-.32-3.55-2.37-3.38-10.58,1.16-12.21Z"/>
    <path class="cls-1" d="M1361.16,582.9c-2.15,3.63-2.33,5.8-4.39,7.82l-3.86-8.37-4.85.04,6.53,13.64.13,7.8,4.34.04-.06-7.05,7.03-14.21c-1.38-.4-4.26-.76-4.88.28Z"/>
    <polygon class="cls-1" points="901.08 582.4 901.04 586.4 906.4 586.66 906.44 603.84 910.87 603.79 910.91 586.66 916.27 586.44 916.06 582.26 901.08 582.4"/>
    <path class="cls-1" d="M1207.28,599.55l.04-17.1c-1.73-.24-3.3-.24-4.7.16l.27,21.27,11.01-.02c.23-1.45.21-3.35-.24-4.09l-6.38-.22Z"/>
  </g>
  <g>
    <polygon class="cls-1" points="695.59 450.5 795.38 509.81 732.98 520.79 633.19 461.48 695.59 450.5"/>
    <polygon class="cls-1" points="695.59 515.3 795.38 574.62 732.98 585.6 633.19 526.28 695.59 515.3"/>
    <polygon class="cls-1" points="695.59 580.11 795.38 639.43 732.98 650.41 633.19 591.09 695.59 580.11"/>
    <path class="cls-1" d="M612.32,513.3l-59.4-33.1,210.67-50.61,59.4,33.1-210.67,50.61ZM565.38,481.91l47.6,26.53,197.54-47.45-47.6-26.53-197.54,47.45Z"/>
  </g>
</svg>